<svg xmlns="http://www.w3.org/2000/svg" xmlns:xlink="http://www.w3.org/1999/xlink" version="1.1" width="50" height="50" viewBox="0 0 49.0 49.0"><defs><clipPath id="i0"><path d="M1440,0 L1440,4585 L0,4585 L0,0 L1440,0 Z"/></clipPath><clipPath id="i1"><path d="M29.3005806,0 L29.3005806,26.6483728 L0,26.6483728 L0,0 L29.3005806,0 Z"/></clipPath><clipPath id="i2"><path d="M23.712,0 C36.8079071,0 47.424,10.6162192 47.424,23.712 C47.424,36.8079071 36.8079071,47.424 23.712,47.424 C10.6162192,47.424 0,36.8079071 0,23.712 C0,10.6162192 10.6162192,0 23.712,0 Z M24.283456,8.98435366 C23.9514249,8.81543329 23.5552987,8.81543329 23.2232676,8.98435366 C22.914538,9.14162326 22.6699034,9.56686057 22.1864122,10.4173352 L10.8239123,30.4452924 C10.3462623,31.2841162 10.1074058,31.7036702 10.1248977,32.0471942 C10.1481992,32.420082 10.3404212,32.7579228 10.6549919,32.9618902 C10.9462296,33.1481762 11.4238796,33.1481762 12.3908619,33.1481762 L17.2333338,33.1481153 C18.1591809,33.147384 18.6550899,33.1378782 19.1013895,33.0143028 C19.6314837,32.8567491 20.1149748,32.5773201 20.5169106,32.1927499 C20.8861042,31.8410167 21.1524933,31.3747649 21.6781356,30.4548592 L21.6935752,30.427832 L27.6620214,19.8773181 C28.1921156,18.9511293 28.4542421,18.4850985 28.5707498,17.9957977 C28.6988767,17.4657035 28.6988767,16.9064981 28.5707498,16.3764039 C28.4551262,15.8907973 28.1903159,15.4281133 27.6681151,14.5157223 L27.6562118,14.4949151 L25.3203114,10.4173352 C24.8368518,9.56686057 24.5921857,9.14162326 24.283456,8.98435366 Z M31.3749543,23.37959 C31.0720343,23.5368596 30.8273997,23.9504461 30.3439086,24.7834288 L27.0527082,30.4337995 L27.0414363,30.453249 C26.5596502,31.2849055 26.3188676,31.7005128 26.3362332,32.0415109 C26.3595348,32.4143987 26.5517567,32.7579228 26.8662959,32.9618902 C27.1297971,33.1338465 27.5669854,33.1470739 28.3978132,33.1480914 L35.2077418,33.1481762 C36.1805337,33.1481762 36.6699292,33.1481762 36.9613563,32.9562069 C37.2758323,32.7522395 37.4738007,32.4083997 37.4914821,32.0358276 C37.5082162,31.7033545 37.2745694,31.3001557 36.8167478,30.510082 C36.8009609,30.483181 36.7851739,30.4558065 36.7690712,30.4279583 L33.4661254,24.7776192 L33.4285524,24.7139978 C32.9644161,23.9291337 32.7301377,23.5327865 32.4292385,23.37959 C32.0973968,23.210638 31.7068276,23.210638 31.3749543,23.37959 Z"/></clipPath></defs><g transform="translate(-449.0 -2873.0)"><g clip-path="url(#i0)"><g transform="translate(117.9375 2613.5)"><g transform="translate(247.30874999999986 214.88999999999993)"><g transform="translate(84.474 45.5715)"><g transform="translate(9.045922769640477 8.114492676431421)"><g clip-path="url(#i1)"><polygon points="0,0 29.3005806,0 29.3005806,26.6483728 0,26.6483728 0,0" stroke="none" fill="#FFFFFF"/></g></g><g clip-path="url(#i2)"><polygon points="0,0 47.424,0 47.424,47.424 0,47.424 0,0" stroke="none" fill="#E84141"/></g></g></g></g></g></g></svg>