<svg xmlns="http://www.w3.org/2000/svg" xmlns:xlink="http://www.w3.org/1999/xlink" version="1.1" width="51" height="50" viewBox="0 0 49.0 48.0"><defs><clipPath id="i0"><path d="M1440,0 L1440,4585 L0,4585 L0,0 L1440,0 Z"/></clipPath><clipPath id="i1"><path d="M23.712,0 C36.807776,0 47.424,10.616224 47.424,23.712 C47.424,36.807776 36.807776,47.424 23.712,47.424 C10.616224,47.424 0,36.807776 0,23.712 C0,10.616224 10.616224,0 23.712,0 Z"/></clipPath><clipPath id="i2"><path d="M11.1638985,0 L12.2411695,4.17668223 C15.5933482,3.61698274 18.3316629,4.19473706 19.5232812,6.89694213 C20.3116751,9.04546599 19.6677198,10.6884548 18.397864,11.8138721 C20.462132,12.0245117 22.9476792,13.8901766 23.3087756,16.1650843 C23.8744934,19.9385421 21.1121056,22.4060345 17.2002274,23.3569218 L18.289535,27.575732 L15.7498234,28.2317239 L14.666534,24.0008772 C14.0045239,24.1754071 13.3244589,24.3439188 12.6263391,24.5064122 L13.7156467,28.761332 L11.175935,29.4173239 L10.0866274,25.1924954 C9.49081827,25.3429523 4.95303959,26.5044792 4.95303959,26.5044792 L4.67619898,23.3328487 C4.67619898,23.3328487 6.56593706,22.8814782 6.52380914,22.8574051 C7.23396548,22.6648203 7.29414822,22.0991025 7.25803858,21.7680975 L4.29704772,10.3213401 C4.0683533,9.8338599 3.5808731,9.31628832 2.54572995,9.58711066 C2.56378477,9.54498274 0.698119797,10.0685726 0.698119797,10.0685726 L0,7.34831269 C0,7.34831269 1.07229863,7.07354497 2.24123186,6.77218683 L2.71164632,6.65081369 C3.81051315,6.36704593 4.88023789,6.0889403 5.12756954,6.01827411 L4.05029848,1.84159188 L6.59001015,1.1856 L7.6492264,5.32617259 C8.32929137,5.13358782 9.01537462,4.98914924 9.68340305,4.82063756 L8.6241868,0.655991878 L11.1638985,0 Z M18.3015716,16.8571858 C17.4469766,13.5651898 12.1268223,15.4609462 10.4055959,15.9123168 L11.8981279,21.5032934 C13.613336,21.0519228 18.8071066,20.594534 18.3015716,16.8571858 Z M15.172069,9.24406904 C14.0827614,6.16873096 9.91209746,7.88995736 8.47372995,8.24503553 L9.8338599,13.3184406 C11.2662091,12.9513259 15.7076954,12.5661563 15.172069,9.24406904 Z"/></clipPath></defs><g transform="translate(-1191.0 -2874.0)"><g clip-path="url(#i0)"><g transform="translate(117.9375 2613.5)"><g transform="translate(989.2349999999999 214.88999999999993)"><g transform="translate(84.47399999999999 45.942000000000114)"><g clip-path="url(#i1)"><polygon points="0,0 47.424,0 47.424,47.424 0,47.424 0,0" stroke="none" fill="#0AC18E"/></g><g transform="translate(11.585177664974621 8.852881218274023)"><g clip-path="url(#i2)"><polygon points="0,0 23.3822936,0 23.3822936,29.4173239 0,29.4173239 0,0" stroke="none" fill="#FFFFFF"/></g></g></g></g></g></g></g></svg>