<svg xmlns="http://www.w3.org/2000/svg" xmlns:xlink="http://www.w3.org/1999/xlink" version="1.1" id="Layer_1" x="0px" y="0px" viewBox="0 0 48 48" style="enable-background:new 0 0 48 48;" xml:space="preserve" width="40"  height="40" >
<style type="text/css">
	.st0{fill:#FFFFFF;fill-opacity:6.000000e-02;}
	.st1{fill:url(#SVGID_1_);}
</style>
<path class="st0" d="M0,24C0,10.7,10.7,0,24,0s24,10.7,24,24S37.3,48,24,48S0,37.3,0,24z"/>
<linearGradient id="SVGID_1_" gradientUnits="userSpaceOnUse" x1="12.975" y1="24.4" x2="35.025" y2="24.4">
	<stop offset="0" style="stop-color:#5C7EE5"/>
	<stop offset="0.1208" style="stop-color:#7275D9"/>
	<stop offset="0.3707" style="stop-color:#AA5FBB"/>
	<stop offset="0.5116" style="stop-color:#CC52A8"/>
	<stop offset="0.9921" style="stop-color:#FFFF04"/>
</linearGradient>
<path class="st1" d="M31.7,17.4C31.7,17.4,31.7,17.4,31.7,17.4c-1.5-0.7-3-1.1-4.5-1.4c0,0,0,0,0,0c0,0,0,0,0,0  c-0.2,0.4-0.4,0.8-0.6,1.1c-1.7-0.3-3.4-0.3-5,0c-0.2-0.4-0.4-0.8-0.6-1.1c0,0,0,0,0,0c0,0,0,0,0,0c-1.6,0.3-3.1,0.7-4.5,1.4  c0,0,0,0,0,0c-2.9,4.3-3.6,8.4-3.3,12.5c0,0,0,0,0,0c0,0,0,0,0,0c1.7,1.2,3.5,2.2,5.5,2.8c0,0,0,0,0,0c0,0,0,0,0,0  c0.4-0.6,0.8-1.2,1.1-1.8c0,0,0,0,0,0c0,0,0,0,0,0c0,0,0,0,0,0c0,0,0,0,0,0c-0.6-0.2-1.2-0.5-1.7-0.8c0,0,0,0,0,0c0,0,0,0,0,0  s0,0,0,0c0,0,0,0,0,0c0.1-0.1,0.2-0.2,0.3-0.3c0,0,0,0,0,0c0,0,0,0,0,0c3.6,1.6,7.5,1.6,11.1,0c0,0,0,0,0,0c0,0,0,0,0,0  c0.1,0.1,0.2,0.2,0.3,0.3c0,0,0,0,0,0c0,0,0,0,0,0c0,0,0,0,0,0s0,0,0,0c-0.5,0.3-1.1,0.6-1.7,0.8c0,0,0,0,0,0s0,0,0,0c0,0,0,0,0,0  c0,0,0,0,0,0c0.3,0.6,0.7,1.2,1.1,1.8c0,0,0,0,0,0s0,0,0,0c2-0.6,3.8-1.5,5.5-2.8c0,0,0,0,0,0c0,0,0,0,0,0  C35.4,25.2,34.2,21.1,31.7,17.4z M20.3,27.5c-1.1,0-2-1-2-2.2c0-1.2,0.9-2.2,2-2.2c1.1,0,2,1,2,2.2C22.3,26.5,21.4,27.5,20.3,27.5z   M27.7,27.5c-1.1,0-2-1-2-2.2c0-1.2,0.9-2.2,2-2.2c1.1,0,2,1,2,2.2C29.7,26.5,28.8,27.5,27.7,27.5z"/>
</svg>