<svg xmlns="http://www.w3.org/2000/svg" xmlns:xlink="http://www.w3.org/1999/xlink" version="1.1" width="51" height="50" viewBox="0 0 49.0 48.0"><defs><clipPath id="i0"><path d="M1440,0 L1440,4585 L0,4585 L0,0 L1440,0 Z"/></clipPath><clipPath id="i1"><path d="M23.712,0 C36.807776,0 47.424,10.616224 47.424,23.712 C47.424,36.807776 36.807776,47.424 23.712,47.424 C10.616224,47.424 0,36.807776 0,23.712 C0,10.616224 10.616224,0 23.712,0 Z"/></clipPath><clipPath id="i2"><path d="M11.901942,0 C13.695162,0 15.246816,0.31122 16.558386,0.929214 C17.869956,1.550172 18.93996,2.396394 19.771362,3.470844 C20.601282,4.543812 21.219276,5.800548 21.623862,7.23957 C22.028448,8.678592 22.23,10.21839 22.23,11.856 C22.2401722,13.4153965 22.0357146,14.968776 21.62238,16.47243 C21.219276,17.90997 20.601282,19.168188 19.76988,20.241156 C18.93996,21.315606 17.869956,22.161828 16.558386,22.782786 C15.246816,23.402262 13.69368,23.712 11.901942,23.712 L2.196324,23.712 L2.196324,13.183872 L0,13.183872 L0,9.797502 L2.196324,9.797502 L2.196324,0 L11.901942,0 Z M10.328058,3.387852 L6.295536,3.387852 L6.295536,9.79602 L12.688884,9.79602 L12.688884,13.183872 L6.295536,13.183872 L6.295536,20.324148 L10.328058,20.324148 C11.924172,20.324148 13.229814,20.109258 14.246466,19.676514 C15.263118,19.245252 16.060434,18.648006 16.639896,17.883294 C17.2325594,17.0880628 17.636017,16.1681186 17.819568,15.193464 C18.0336837,14.094043 18.1379366,12.976054 18.130788,11.856 C18.1379366,10.735946 18.0336837,9.61795703 17.819568,8.518536 C17.6362176,7.54381939 17.2327409,6.62383165 16.639896,5.828706 C16.060434,5.063994 15.261636,4.466748 14.246466,4.035486 C13.229814,3.602742 11.924172,3.387852 10.328058,3.387852 Z"/></clipPath></defs><g transform="translate(-201.0 -2874.0)"><g clip-path="url(#i0)"><g transform="translate(117.9375 2613.5)"><g transform="translate(0.0 214.88999999999993)"><g transform="translate(83.73299999999999 45.94200000000015)"><g clip-path="url(#i1)"><polygon points="0,0 47.424,0 47.424,47.424 0,47.424 0,0" stroke="none" fill="#C3A634"/></g><g transform="translate(13.338 11.85600000000022)"><g clip-path="url(#i2)"><polygon points="0,0 22.2303617,0 22.2303617,23.712 0,23.712 0,0" stroke="none" fill="#FFFFFF"/></g></g></g></g></g></g></g></svg>