<svg xmlns="http://www.w3.org/2000/svg" xmlns:xlink="http://www.w3.org/1999/xlink" version="1.1" id="Layer_1" x="0px" y="0px" viewBox="0 0 48 48" style="enable-background:new 0 0 48 48;" xml:space="preserve" width="40"  height="40" >
<style type="text/css">
	.st0{fill:#FFFFFF;fill-opacity:6.000000e-02;}
	.st1{fill:url(#SVGID_1_);}
</style>
<path class="st0" d="M0,24C0,10.7,10.7,0,24,0s24,10.7,24,24S37.3,48,24,48S0,37.3,0,24z"/>
<linearGradient id="SVGID_1_" gradientUnits="userSpaceOnUse" x1="14" y1="24.75" x2="34" y2="24.75">
	<stop offset="0" style="stop-color:#5C7EE5"/>
	<stop offset="0.1208" style="stop-color:#7275D9"/>
	<stop offset="0.3707" style="stop-color:#AA5FBB"/>
	<stop offset="0.5116" style="stop-color:#CC52A8"/>
	<stop offset="0.9921" style="stop-color:#FFFF04"/>
</linearGradient>
<path class="st1" d="M22,15h4c2.1,0,4.2,0.8,5.7,2.3c1.5,1.5,2.3,3.5,2.3,5.7s-0.8,4.2-2.3,5.7C30.2,30.2,28.1,31,26,31v3.5  c-5-2-12-5-12-11.5c0-2.1,0.8-4.2,2.3-5.7C17.8,15.8,19.9,15,22,15z M24,29h2c0.8,0,1.6-0.2,2.3-0.5c0.7-0.3,1.4-0.7,1.9-1.3  c0.6-0.6,1-1.2,1.3-1.9c0.3-0.7,0.5-1.5,0.5-2.3s-0.2-1.6-0.5-2.3c-0.3-0.7-0.7-1.4-1.3-1.9c-0.6-0.6-1.2-1-1.9-1.3  C27.6,17.2,26.8,17,26,17h-4c-1.6,0-3.1,0.6-4.2,1.8C16.6,19.9,16,21.4,16,23c0,3.6,2.5,6,8,8.5V29z"/>
</svg>