<svg xmlns="http://www.w3.org/2000/svg" xmlns:xlink="http://www.w3.org/1999/xlink" version="1.1" id="Layer_1" x="0px" y="0px" viewBox="0 0 39 33" style="enable-background:new 0 0 39 33;" xml:space="preserve" width="15.363636363636365"  height="13" >
<style type="text/css">
	.st0{fill:#A5AEBE;}
</style>
<title>Shape</title>
<desc>Created with Sketch.</desc>
<path class="st0" d="M24.7,3l-0.5,0.5c5.6,1.7,8.2,4.1,8.2,4.1c-3.4-1.8-6.8-2.7-10-3.1c-2.4-0.3-4.7-0.2-6.7,0.1  c-0.2,0-0.4,0-0.6,0.1c-1.2,0.1-4,0.5-7.5,2c-1.2,0.5-2,0.9-2,0.9S8.6,5,14.5,3.4L14.2,3c0,0-4.5-0.1-9.3,3.4c0,0-4.8,8.4-4.8,18.7  c0,0,2.8,4.7,10.1,4.9c0,0,1.2-1.4,2.2-2.7c-4.2-1.2-5.8-3.8-5.8-3.8S7,23.7,7.6,24c0,0,0.1,0.1,0.1,0.1c0.1,0.1,0.2,0.1,0.3,0.2  c0.8,0.4,1.7,0.8,2.4,1.1c1.4,0.5,3,1,4.9,1.4c2.5,0.4,5.4,0.6,8.6,0c1.6-0.3,3.1-0.7,4.8-1.4c1.2-0.4,2.5-1,3.8-1.9  c0,0-1.7,2.6-6,3.8c1,1.2,2.2,2.6,2.2,2.6c7.3-0.2,10.1-4.9,10.1-4.9C38.8,14.7,34,6.4,34,6.4C29.3,2.9,24.7,3,24.7,3z M13.3,23.2  c-1.9,0-3.4-1.7-3.4-3.7c0-2,1.5-3.7,3.4-3.7s3.4,1.7,3.4,3.7C16.7,21.5,15.2,23.2,13.3,23.2z M25.4,23.2c-1.9,0-3.4-1.7-3.4-3.7  c0-2,1.5-3.7,3.4-3.7s3.4,1.7,3.4,3.7C28.7,21.5,27.3,23.2,25.4,23.2z"/>
</svg>