<svg xmlns="http://www.w3.org/2000/svg" xmlns:xlink="http://www.w3.org/1999/xlink" width="165.48387096774192" height="90" viewBox="0 0 228 124" version="1.1">
    <title>Shape</title>
    <g id="Page-1" stroke="none" stroke-width="1" fill="none" fill-rule="evenodd">
        <g id="fox-farm-cta" transform="translate(-376.000000, -362.000000)" fill="#FFFFFF" fill-rule="nonzero">
            <g id="5cf18f8c3b29a226ec1b1855_logo-footer-(1)" transform="translate(376.000000, 362.000000)">
                <path d="M191.596705,112.682631 L195.446098,112.682631 L195.446098,89.7955492 L191.596705,89.7955492 L191.596705,112.682631 Z M191.596705,86.8145307 L195.446098,86.8145307 L195.446098,82.9657068 L191.596705,82.9657068 L191.596705,86.8145307 Z M13.9582421,82.7467651 C9.77560322,82.7467651 5.31089927,84.390818 5.31089927,88.3857926 C5.31089927,90.8861064 7.31441455,92.1427917 10.1766549,92.94583 L10.675523,93.0791972 L10.675523,93.0791972 L11.1899336,93.204561 L11.1899336,93.204561 L11.7186049,93.3228059 L11.7186049,93.3228059 L12.2602552,93.4348162 L12.2602552,93.4348162 L12.8136031,93.5414764 L12.8136031,93.5414764 L13.6627541,93.6933698 L13.6627541,93.6933698 L14.2397385,93.790524 L14.2397385,93.790524 L15.6662875,94.0219367 L15.6662875,94.0219367 L16.2328013,94.1199702 L16.2328013,94.1199702 L17.0752551,94.2755401 L17.0752551,94.2755401 L17.9061276,94.4438881 L17.9061276,94.4438881 L18.4520522,94.564638 C18.5424422,94.58539 18.6325203,94.6064673 18.7222673,94.6278877 L19.2566195,94.7606685 L19.2566195,94.7606685 L19.7820896,94.9025343 L19.7820896,94.9025343 L20.2977438,95.0543364 L20.2977438,95.0543364 L20.8026485,95.2169264 C24.5467884,96.4789339 27.3051535,98.723004 27.3051535,103.565559 C27.2661619,109.660939 22.4487636,112.356755 17.2241533,113.11007 L16.6728792,113.182255 C15.9363451,113.269103 15.1948109,113.318695 14.4603615,113.335057 L13.9110417,113.341162 L13.9110417,113.341162 C8.08378126,113.341162 2.53801729,111.226242 0,105.727679 L3.38364393,103.753791 C5.49856356,107.654934 9.9160671,109.533851 13.9582421,109.533851 L14.1734498,109.532625 L14.1734498,109.532625 L14.6105159,109.522579 C14.6840237,109.520034 14.7578381,109.517046 14.8319214,109.513601 L15.2793453,109.487343 L15.2793453,109.487343 L15.7314101,109.44949 C16.0339311,109.420249 16.3383384,109.382858 16.6422169,109.336478 L17.097336,109.260059 C20.2761663,108.67646 23.2635472,107.055403 23.2635472,103.424526 C23.2937715,100.774742 21.3695543,99.3486043 18.6681644,98.4683664 L18.1976755,98.3226896 C18.0384546,98.2758288 17.8769157,98.2306242 17.7132783,98.1869492 L17.216291,98.0603865 L17.216291,98.0603865 L16.7080313,97.9422427 L16.7080313,97.9422427 L16.1898174,97.831759 L16.1898174,97.831759 L15.3967153,97.6787365 L15.3967153,97.6787365 L14.5886298,97.5386813 L14.5886298,97.5386813 L13.1850475,97.3164823 L13.1850475,97.3164823 L12.0225048,97.120049 L12.0225048,97.120049 L11.44701,97.0145069 L11.44701,97.0145069 L10.876757,96.902975 L10.876757,96.902975 L10.3127891,96.7846238 L10.3127891,96.7846238 L9.75614946,96.6586237 L9.75614946,96.6586237 L9.20788117,96.5241452 L9.20788117,96.5241452 L8.66902741,96.3803587 L8.66902741,96.3803587 L8.14063136,96.2264346 C4.21948524,95.0319146 1.2687243,92.9120452 1.2687243,88.2919604 C1.19337425,82.7818165 5.69429106,80.1815754 10.4148605,79.3710154 L10.9499688,79.2868391 C11.8425996,79.1590873 12.7371973,79.0935429 13.6044989,79.0826815 L13.8638412,79.0810561 C18.7516429,79.0810561 23.4040111,80.0677153 26.3179256,85.049349 L23.2163468,86.9760357 C21.430124,84.1093216 17.6233824,82.7933969 13.9582421,82.7467651 Z M34.2538502,79.8010043 L34.2538502,93.3361487 C36.2283059,90.2817703 39.3298847,89.2479107 42.2909997,89.2007103 C48.8228542,89.2007103 52.0182651,93.5243817 52.0182651,99.9157723 L52.0182651,112.699123 L48.2120922,112.699123 L48.2120922,99.9629726 C48.2120922,95.4044366 45.8623079,92.8192189 41.6324687,92.8192189 C37.4026294,92.8192189 34.3010506,96.1562311 34.3010506,100.385502 L34.3010506,112.699123 L30.4471086,112.699123 L30.4471086,79.8010043 L34.2538502,79.8010043 Z M67.3492999,92.7560954 C62.7435634,92.7560954 59.0306539,96.0464759 59.0306539,101.215774 C59.0306539,106.385641 62.7435634,109.722085 67.3492999,109.722085 C78.5340913,109.722085 78.5340913,92.7094637 67.3959316,92.7094637 L67.3492999,92.7560954 Z M75.8084097,112.777032 L75.7145776,108.547192 C73.8817231,111.743172 70.3570466,113.24733 67.1610669,113.24733 C60.4876112,113.24733 55.2711128,108.641593 55.2711128,101.074742 C55.2711128,93.555659 60.582012,89.0437547 67.2082673,89.0909551 C70.6863121,89.0909551 74.1165878,90.6889449 75.8084097,93.6966916 L75.8556101,89.4668523 L79.6151513,89.4668523 L79.6151513,112.682631 L75.9028105,112.682631 L75.8084097,112.777032 Z M103.657221,101.215774 C103.657221,95.9992755 100.226377,92.897128 95.4801762,92.897128 C90.639575,92.897128 87.3491946,96.4695736 87.3491946,101.215774 C87.3491946,105.962543 90.7806076,109.533852 95.4801762,109.581052 C100.132544,109.581052 103.657221,106.432273 103.657221,101.215774 Z M83.1665557,89.5606845 L86.8328335,89.5606845 L87.0204977,94.0253884 C88.8533523,90.9238096 92.2841966,89.1375868 95.9499056,89.1375868 C102.623361,89.2786194 107.510594,93.9787567 107.510594,101.121942 C107.510594,108.45336 102.670562,113.200129 95.7144723,113.200129 C92.4252292,113.200129 88.7589514,111.790372 86.9266656,108.500561 L86.9266656,123.633126 L83.1665557,123.633126 L83.1665557,89.5606845 Z M129.997894,99.3834881 C129.810229,94.8715838 126.708651,92.4273986 122.150115,92.4273986 C118.108508,92.4273986 114.583263,94.8715838 113.925301,99.3362877 L129.997894,99.3362877 L129.997894,99.3834881 Z M132.254415,108.97029 C129.904062,111.743172 125.862455,113.106297 122.243947,113.106297 C115.053561,113.106297 110.024727,108.359528 110.024727,100.98091 C110.024727,93.9787567 115.053561,88.9499225 122.055714,88.9499225 C129.152267,88.9499225 134.556999,93.3207943 133.664171,102.578899 L113.925301,102.578899 C114.348398,106.85537 117.873075,109.533852 122.337779,109.533852 C124.969628,109.533852 128.165608,108.500561 129.716397,106.620506 L132.301046,108.97029 L132.254415,108.97029 Z M149.769179,82.7467649 C145.58654,82.7467649 141.121836,84.3908178 141.121836,88.3857923 C141.121836,91.0289812 143.360555,92.2823518 146.486447,93.0791969 L147.000912,93.2045607 L147.000912,93.2045607 L147.529649,93.3228056 L147.529649,93.3228056 L148.071377,93.4348159 L148.071377,93.4348159 L148.624816,93.5414761 L148.624816,93.5414761 L149.474131,93.6933695 L149.474131,93.6933695 L150.051244,93.7905237 L150.051244,93.7905237 L151.477678,94.0219364 L151.477678,94.0219364 L152.044151,94.1199699 L152.044151,94.1199699 L152.886548,94.2755398 L152.886548,94.2755398 L153.717369,94.4438878 L153.717369,94.4438878 L154.263262,94.5646377 C154.353647,94.5853897 154.44372,94.606467 154.533462,94.6278874 L155.067786,94.7606683 L155.067786,94.7606683 L155.59323,94.902534 L155.59323,94.902534 L156.108861,95.0543362 L156.108861,95.0543362 L156.613743,95.2169261 C160.357726,96.4789337 163.116091,98.7230039 163.116091,103.565559 C163.077569,109.660939 158.259864,112.356754 153.035454,113.11007 L152.484203,113.182255 C151.747702,113.269103 151.006212,113.318694 150.271821,113.335057 L149.722548,113.341162 L149.722548,113.341162 C143.89415,113.341162 138.348954,111.226242 135.810937,105.727679 L139.194581,103.753792 C141.310069,107.654934 145.727573,109.533852 149.769179,109.533852 L149.984387,109.532625 L149.984387,109.532625 L150.421453,109.522579 C150.494961,109.520034 150.568775,109.517046 150.642858,109.513601 L151.090282,109.487343 L151.090282,109.487343 L151.542347,109.44949 C151.844868,109.420249 152.149275,109.382858 152.453154,109.336478 L152.908273,109.260059 C156.087103,108.67646 159.074484,107.055403 159.074484,103.424526 C159.104708,100.774742 157.18073,99.348604 154.479353,98.4683661 L154.008865,98.3226893 C153.849643,98.2758286 153.688102,98.230624 153.524462,98.186949 L153.027465,98.0603863 L153.027465,98.0603863 L152.519189,97.9422425 L152.519189,97.9422425 L152.000952,97.8317588 L152.000952,97.8317588 L151.474072,97.7281765 L151.474072,97.7281765 L150.939866,97.6307369 L150.939866,97.6307369 L150.399651,97.5386811 L150.399651,97.5386811 L148.995986,97.3164821 L148.995986,97.3164821 L147.833455,97.1200488 L147.833455,97.1200488 L147.257971,97.0145067 L147.257971,97.0145067 L146.68773,96.9029748 L146.68773,96.9029748 L146.123777,96.7846235 L146.123777,96.7846235 L145.567154,96.6586235 L145.567154,96.6586235 L145.018904,96.524145 L145.018904,96.524145 L144.480071,96.3803585 L144.480071,96.3803585 L143.951697,96.2264344 C140.030718,95.0319144 137.08023,92.9120449 137.08023,88.2919602 C136.98782,81.5342364 143.777994,79.15328 149.41598,79.0826812 L149.675347,79.0810558 C154.56258,79.0810558 159.215517,80.067715 162.128863,85.0493488 L159.027284,86.9760355 C157.24163,84.1093213 153.434888,82.7933966 149.769179,82.7467649 Z M169.982897,79.7856499 L169.982897,93.3207943 C171.956785,90.2664159 175.058363,89.2319876 178.019478,89.1847872 C184.551901,89.1847872 187.747312,93.5090273 187.747312,99.8998492 L187.747312,112.682631 L183.94114,112.682631 L183.94114,99.9470496 C183.94114,95.3885136 181.590787,92.8032959 177.361516,92.8032959 C173.131677,92.8032959 170.029529,96.1403081 170.029529,100.370148 L170.029529,112.682631 L166.176156,112.682631 L166.176156,79.7856499 L169.982897,79.7856499 Z M207.363917,87.9160629 C207.363917,84.4380182 208.961907,82.8872288 211.453292,82.8872288 L211.598306,82.8934842 L211.598306,82.8934842 L212.466111,79.5814939 C212.10045,79.5342935 211.732514,79.5035848 211.358892,79.5035848 C206.471659,79.5035848 203.557744,82.6057323 203.557744,87.9160629 L203.557744,89.7483488 L198.998639,89.7483488 L198.998639,93.1331301 L203.557744,93.1331301 L203.557744,112.682631 L207.363917,112.682631 L207.363917,93.1331301 L211.97534,93.1331301 L211.97534,89.7483488 L207.363917,89.7483488 L207.363917,87.9160629 Z M227.005544,109.458217 C226.7013,109.506555 226.401037,109.533852 226.112717,109.533852 C223.339835,109.533852 222.447007,107.795398 222.447007,105.069716 L222.447007,93.1035587 L227.392814,93.1035587 L227.392814,89.7642718 L222.493639,89.7642718 L222.493639,82.6995645 L218.639697,83.1220935 L218.639697,89.7642718 L213.987898,89.7642718 L213.987898,93.1035587 L218.639697,93.1035587 L218.639697,105.069716 C218.639697,110.192383 220.99005,113.106297 225.971684,113.012465 C226.586427,112.99313 227.178991,112.920908 227.766437,112.79921 L227.005544,109.458217 Z M138.299479,5.25687471 L135.516361,21.939661 L125.624747,10.2965138 L138.299479,5.25687471 Z M135.57721,29.1146922 L138.053241,38.2579236 L119.118483,43.4732847 L135.57721,29.1146922 Z M94.35874,24.5191919 L104.51024,11.2564451 L122.139878,11.2564451 L133.408266,24.5191919 L94.35874,24.5191919 Z M132.102577,27.7970614 L113.747304,43.8088057 L95.0502544,27.7970614 L132.102577,27.7970614 Z M101.110673,10.3061814 L92.0390957,22.1574653 L89.2537027,5.32170419 L101.110673,10.3061814 Z M108.310158,43.4675979 L89.1951287,38.2624731 L91.8144672,29.3398893 L108.310158,43.4675979 Z M111.839384,47.8248214 L108.231111,51.7959114 C105.173321,48.8910958 101.811287,46.3121336 98.2223495,44.1170301 L111.839384,47.8248214 Z M129.342206,44.0561814 C125.753269,46.2876803 122.399196,48.9001947 119.360172,51.8323069 L115.675697,47.820272 L129.342206,44.0561814 Z M142.487805,0.0642608006 L122.583448,7.9791442 L104.031412,7.9791442 L85.0517288,0 L89.3628892,26.0557643 L85.2229014,40.1595884 L96.0244027,46.6175145 C101.139107,49.675305 105.720391,53.5013817 109.640868,57.9882642 L113.846823,62.8027061 L118.260914,57.7397512 C122.048321,53.396176 126.459,49.6667748 131.370686,46.6556161 L141.963482,40.1595884 L138.148779,26.0750995 L142.487805,0.0642608006 Z" id="Shape"/>
            </g>
        </g>
    </g>
</svg>