<svg xmlns="http://www.w3.org/2000/svg" xmlns:xlink="http://www.w3.org/1999/xlink" width="15" height="15" viewBox="0 0 33 33" version="1.1">
    <!-- Generator: Sketch 55.1 (78136) - https://sketchapp.com -->
    <title>Shape</title>
    <desc>Created with Sketch.</desc>
    <g id="Mock-Ups" stroke="none" stroke-width="1" fill="none" fill-rule="evenodd">
        <g id="Landing-Page" transform="translate(-301.000000, -10102.000000)" fill="#A5AEBE">
            <g id="Footer" transform="translate(0.000000, 9590.000000)">
                <g id="Social" transform="translate(161.859551, 508.750813)">
                    <path d="M155.221911,6.4320583 C159.489844,6.4320583 159.995339,6.44830114 161.680787,6.52520083 C163.239212,6.5963267 164.085552,6.8567197 164.648849,7.07555388 C165.394877,7.36551393 165.927401,7.71194322 166.486701,8.27124252 C167.046,8.83054183 167.392429,9.36306582 167.682326,10.1090943 C167.901223,10.6723909 168.161616,11.5187316 168.232742,13.0770924 C168.309642,14.7626041 168.325885,15.268099 168.325885,19.5360317 C168.325885,23.8039644 168.309642,24.3094593 168.232742,25.9949076 C168.161616,27.5533318 167.901223,28.3996726 167.682326,28.9629691 C167.392429,29.7089976 167.046,30.2415216 166.486701,30.8008209 C165.927401,31.3601202 165.394877,31.7065495 164.648849,31.9964461 C164.085552,32.2153437 163.239212,32.4757368 161.680787,32.5468626 C159.995593,32.6237623 159.490098,32.6400051 155.221911,32.6400051 C150.953725,32.6400051 150.44823,32.6237623 148.763036,32.5468626 C147.204611,32.4757368 146.358271,32.2153437 145.795037,31.9964461 C145.048946,31.7065495 144.516422,31.3601202 143.957122,30.8008209 C143.397823,30.2415216 143.051394,29.7089976 142.761497,28.9629691 C142.542599,28.3996726 142.282206,27.5533318 142.211081,25.9949711 C142.134181,24.3094593 142.117938,23.8039644 142.117938,19.5360317 C142.117938,15.268099 142.134181,14.7626041 142.211081,13.0771558 C142.282206,11.5187316 142.542599,10.6723909 142.761497,10.1090943 C143.051394,9.36306582 143.397823,8.83054183 143.957122,8.27124252 C144.516422,7.71194322 145.048946,7.36551393 145.795037,7.07555388 C146.358271,6.8567197 147.204611,6.5963267 148.762972,6.52520083 C150.448484,6.44830114 150.953979,6.4320583 155.221911,6.4320583 M155.221911,3.552 C159.562937,3.552 160.107262,3.57040009 161.812062,3.64818806 C163.513436,3.72584913 164.675307,3.99601322 165.692071,4.39117102 C166.74316,4.79965303 167.634549,5.34619917 168.523147,6.23479664 C169.411744,7.12339412 169.95829,8.01478333 170.366772,9.06587264 C170.76193,10.0826363 171.032094,11.2445068 171.109755,12.9458807 C171.187543,14.6506808 171.205943,15.1950062 171.205943,19.5360317 C171.205943,23.8770572 171.187543,24.4213827 171.109755,26.1261828 C171.032094,27.8275566 170.76193,28.9894272 170.366772,30.0061908 C169.95829,31.0572801 169.411744,31.9486693 168.523147,32.8372668 C167.634549,33.7258643 166.74316,34.2724104 165.692071,34.6808924 C164.675307,35.0760502 163.513436,35.3462143 161.812062,35.4238754 C160.107262,35.5016634 159.562937,35.52 155.221911,35.52 C150.880886,35.52 150.336624,35.5016634 148.63176,35.4238754 C146.930387,35.3462143 145.768516,35.0760502 144.751752,34.6808924 C143.700663,34.2724104 142.809274,33.7258643 141.920676,32.8372668 C141.032079,31.9486693 140.485533,31.0572167 140.077051,30.0061908 C139.681893,28.9894272 139.411729,27.8275566 139.334068,26.1261828 C139.25628,24.4213827 139.237943,23.8770572 139.237943,19.5360317 C139.237943,15.1950062 139.25628,14.6506808 139.334068,12.9458807 C139.411729,11.2445068 139.681893,10.0826363 140.077051,9.06587264 C140.485533,8.01478333 141.032079,7.12339412 141.920676,6.23479664 C142.809274,5.34619917 143.700663,4.79965303 144.751752,4.39117102 C145.768516,3.99601322 146.930387,3.72584913 148.63176,3.64818806 C150.336624,3.57040009 150.880886,3.552 155.221911,3.552 Z M155.253657,11.3537143 C150.717211,11.3537143 147.039657,15.0312675 147.039657,19.5677143 C147.039657,24.1041611 150.717211,27.7817143 155.253657,27.7817143 C159.790104,27.7817143 163.467657,24.1041611 163.467657,19.5677143 C163.467657,15.0312675 159.790104,11.3537143 155.253657,11.3537143 Z M155.253657,24.8996235 C152.308961,24.8996235 149.921748,22.5124109 149.921748,19.5677143 C149.921748,16.6230177 152.308961,14.2358051 155.253657,14.2358051 C158.198354,14.2358051 160.585567,16.6230177 160.585567,19.5677143 C160.585567,22.5124109 158.198354,24.8996235 155.253657,24.8996235 Z M165.624229,10.9731114 C165.624229,9.92218259 164.772332,9.07028571 163.721403,9.07028571 C162.670474,9.07028571 161.818515,9.92218259 161.818515,10.9731114 C161.818515,12.0240402 162.670474,12.876 163.721403,12.876 C164.772332,12.876 165.624229,12.0240402 165.624229,10.9731114 Z" id="Shape"/>
                </g>
            </g>
        </g>
    </g>
</svg>