<svg xmlns="http://www.w3.org/2000/svg" xmlns:xlink="http://www.w3.org/1999/xlink" version="1.1" id="Capa_1" x="0px" y="0px" viewBox="0 0 455.7 455.7" style="enable-background:new 0 0 455.7 455.7;" xml:space="preserve" width="19"  height="19" >
<style type="text/css">
	.st0{fill:#B2B3B9;}
</style>
<g>
	<path class="st0" d="M358.8,100.6L54.1,219.4c-9.9,3.8-9.3,18,0.9,21l77.4,22.9l28.9,91.7c3,9.6,15.2,12.5,22.2,5.3l40-40.9   l78.6,57.7c9.6,7.1,23.3,1.8,25.7-9.9l52-248.8C382.4,106.2,370.4,96.1,358.8,100.6z M320.6,155.8L179.1,281   c-1.4,1.2-2.3,3-2.5,4.8l-5.4,48.4c-0.2,1.6-2.4,1.8-2.9,0.3l-22.4-72.3c-1-3.3,0.3-6.9,3.3-8.7l167.2-103.7   C320.1,147.5,324,152.8,320.6,155.8z"/>
</g>
</svg>