<svg xmlns="http://www.w3.org/2000/svg" xmlns:xlink="http://www.w3.org/1999/xlink" version="1.1" id="Layer_1" x="0px" y="0px" viewBox="0 0 39 33" style="enable-background:new 0 0 39 33;" xml:space="preserve" width="17.727272727272727"  height="15" >
<style type="text/css">
	.st0{fill:#A5AEBE;}
</style>
<title>Shape</title>
<desc>Created with Sketch.</desc>
<g id="Page-1">
	<g id="Monogram">
		<path id="Shape" class="st0" d="M4.7,7.7c0.1-0.5-0.1-0.9-0.5-1.3L0.6,2.1V1.4h11.2l8.7,19l7.6-19h10.7v0.6L35.7,5    c-0.3,0.2-0.4,0.5-0.4,0.9v21.7c-0.1,0.3,0.1,0.6,0.4,0.9l3,2.9v0.6H23.5v-0.6l3.1-3c0.3-0.3,0.3-0.4,0.3-0.9V10l-8.7,22h-1.2    L7,10v14.8c-0.1,0.6,0.1,1.2,0.6,1.7l4,5v0.6H0.1v-0.6l4.1-4.9c0.4-0.4,0.6-1.1,0.5-1.7L4.7,7.7L4.7,7.7z"/>
	</g>
</g>
</svg>