<svg xmlns="http://www.w3.org/2000/svg" xmlns:xlink="http://www.w3.org/1999/xlink" width="16.545454545454547" height="14" viewBox="0 0 39 33" version="1.1">
    <!-- Generator: Sketch 55.1 (78136) - https://sketchapp.com -->
    <title>Shape</title>
    <desc>Created with Sketch.</desc>
    <g id="Mock-Ups" stroke="none" stroke-width="1" fill="none" fill-rule="evenodd">
        <g id="Landing-Page" transform="translate(-219.000000, -10101.000000)" fill="#A5AEBE">
            <g id="Footer" transform="translate(0.000000, 9590.000000)">
                <g id="Social" transform="translate(161.859551, 508.750813)">
                    <path d="M90.896657,7.59116221 C92.4772001,6.59374953 93.6899713,5.01220396 94.259142,3.12820222 C92.7792983,4.05404131 91.1440273,4.72360075 89.3993004,5.08608638 C88.0070215,3.51608493 86.0171134,2.53714286 83.8148609,2.53714286 C79.5898636,2.53714286 76.1660833,6.15045501 76.1660833,10.6064885 C76.1660833,11.2391067 76.2295677,11.8555632 76.3609148,12.4443137 C70.0037167,12.1072252 64.3667384,8.89795753 60.5905102,4.01248245 C59.9315857,5.20845414 59.5550574,6.59374953 59.5550574,8.07139795 C59.5550574,10.8696946 60.9057431,13.3401381 62.9591356,14.7900806 C61.7047711,14.7485217 60.5248366,14.3814185 59.491573,13.7811238 L59.491573,13.8804033 C59.491573,17.791554 62.1272709,21.0539246 65.6320485,21.7927488 C64.9884478,21.9820725 64.3141995,22.0767344 63.6136818,22.0767344 C63.1211303,22.0767344 62.6395244,22.028249 62.1754315,21.9335872 C63.1473998,25.1382372 65.9735508,27.4747687 69.3229011,27.537107 C66.7025271,29.7027855 63.4035265,30.9911102 59.8199407,30.9911102 C59.2026095,30.9911102 58.5918456,30.9564778 57.9942165,30.8802866 C61.3807817,33.1683328 65.4021911,34.5051429 69.7235096,34.5051429 C83.7995371,34.5051429 91.4920971,22.2083374 91.4920971,11.5438717 C91.4920971,11.1929302 91.4877188,10.8442976 91.472395,10.5002825 C92.9675625,9.36203149 94.2678984,7.93979489 95.2902165,6.3213081 C93.9176396,6.96316164 92.4421742,7.39722086 90.896657,7.59116221 Z" id="Shape"/>
                </g>
            </g>
        </g>
    </g>
</svg>