<svg width="50" height="50" viewBox="0 0 50 50" fill="none" xmlns="http://www.w3.org/2000/svg">
<g clip-path="url(#clip0_8_21)">
<path d="M25 50C38.8071 50 50 38.8071 50 25C50 11.1929 38.8071 0 25 0C11.1929 0 0 11.1929 0 25C0 38.8071 11.1929 50 25 50Z" fill="#2E3148"/>
<path d="M25 39.5063C33.0115 39.5063 39.5062 33.0116 39.5062 25.0001C39.5062 16.9885 33.0115 10.4939 25 10.4939C16.9884 10.4939 10.4938 16.9885 10.4938 25.0001C10.4938 33.0116 16.9884 39.5063 25 39.5063Z" fill="#1B1E36"/>
<path d="M25.0514 3.18945C22.3528 3.18945 20.1646 12.9775 20.1646 25.0517C20.1646 37.1259 22.3528 46.9139 25.0514 46.9139C27.75 46.9139 29.9382 37.1259 29.9382 25.0517C29.9382 12.9775 27.75 3.18945 25.0514 3.18945ZM25.3888 45.6801C25.0802 46.0917 24.7716 45.7829 24.7716 45.7829C23.5288 44.3429 22.9074 41.6677 22.9074 41.6677C20.7336 34.6719 21.251 19.6513 21.251 19.6513C22.2726 7.72645 24.131 4.90945 24.7634 4.28405C24.8279 4.22022 24.913 4.18122 25.0035 4.1739C25.094 4.16659 25.1842 4.19143 25.2582 4.24405C26.1758 4.89425 26.9454 7.61345 26.9454 7.61345C29.218 16.0497 29.0122 23.9715 29.0122 23.9715C29.218 30.8645 27.8734 38.5805 27.8734 38.5805C26.8384 44.4445 25.3888 45.6801 25.3888 45.6801Z" fill="#6F7390"/>
<path d="M44.0144 14.1719C42.6708 11.8303 33.0926 14.8035 22.6144 20.8119C12.1362 26.8203 4.74503 33.5897 6.08763 35.9303C7.43023 38.2709 17.0094 35.2987 27.4876 29.2903C37.9658 23.2819 45.357 16.5125 44.0144 14.1719V14.1719ZM7.32723 35.6091C6.81283 35.5443 6.92903 35.1215 6.92903 35.1215C7.56003 33.3273 9.56803 31.4569 9.56803 31.4569C14.5566 26.0897 27.8438 19.0639 27.8438 19.0639C38.6946 14.0155 42.065 14.2285 42.92 14.4639C43.0078 14.4884 43.0841 14.5431 43.1353 14.6185C43.1866 14.6938 43.2095 14.7848 43.2 14.8755C43.0972 15.9955 41.1166 18.0155 41.1166 18.0155C34.9342 24.1873 27.96 27.9517 27.96 27.9517C22.0834 31.5617 14.7214 34.2335 14.7214 34.2335C9.11963 36.2521 7.32743 35.6091 7.32743 35.6091H7.32723Z" fill="#6F7390"/>
<path d="M43.967 36.0082C45.321 33.6728 37.9484 26.8724 27.507 20.8188C17.0656 14.7652 7.48857 11.7552 6.13577 14.0946C4.78297 16.434 12.1544 23.2304 22.6018 29.284C33.0492 35.3376 42.6142 38.3478 43.967 36.0082ZM7.03297 14.997C6.83297 14.5228 7.25517 14.4086 7.25517 14.4086C9.12437 14.0556 11.75 14.86 11.75 14.86C18.893 16.4866 31.63 24.465 31.63 24.465C41.4366 31.3272 42.9406 34.3498 43.166 35.2078C43.1889 35.2958 43.18 35.389 43.1408 35.4711C43.1017 35.5532 43.0348 35.6188 42.952 35.6564C41.9294 36.1246 39.1906 35.427 39.1906 35.427C30.7492 33.1636 23.9982 29.0166 23.9982 29.0166C17.9324 25.745 11.9344 20.711 11.9344 20.711C7.37677 16.8736 7.03437 15.0022 7.03437 15.0022L7.03297 14.997Z" fill="#6F7390"/>
<path d="M25 27.572C26.4205 27.572 27.572 26.4205 27.572 25C27.572 23.5795 26.4205 22.428 25 22.428C23.5795 22.428 22.428 23.5795 22.428 25C22.428 26.4205 23.5795 27.572 25 27.572Z" fill="#B7B9C8"/>
<path d="M35.5451 16.6665C36.369 16.6665 37.0369 15.9756 37.0369 15.1233C37.0369 14.271 36.369 13.5801 35.5451 13.5801C34.7212 13.5801 34.0533 14.271 34.0533 15.1233C34.0533 15.9756 34.7212 16.6665 35.5451 16.6665Z" fill="#B7B9C8"/>
<path d="M11.0595 21.9136C11.8834 21.9136 12.5513 21.2226 12.5513 20.3703C12.5513 19.5181 11.8834 18.8271 11.0595 18.8271C10.2356 18.8271 9.56775 19.5181 9.56775 20.3703C9.56775 21.2226 10.2356 21.9136 11.0595 21.9136Z" fill="#B7B9C8"/>
<path d="M21.9649 40.8435C22.7888 40.8435 23.4567 40.1526 23.4567 39.3003C23.4567 38.448 22.7888 37.7571 21.9649 37.7571C21.141 37.7571 20.4731 38.448 20.4731 39.3003C20.4731 40.1526 21.141 40.8435 21.9649 40.8435Z" fill="#B7B9C8"/>
</g>
<defs>
<clipPath id="clip0_8_21">
<rect width="50" height="50" fill="white"/>
</clipPath>
</defs>
</svg>
