<svg width="50" height="50" viewBox="0 0 50 50" fill="none" xmlns="http://www.w3.org/2000/svg">
<g clip-path="url(#clip0_8_17)">
<path d="M24.774 0.226074C38.4539 0.226074 49.5479 11.3201 49.5479 25C49.5479 38.68 38.4539 49.774 24.774 49.774C11.094 49.774 0 38.68 0 25C0 11.3201 11.094 0.226074 24.774 0.226074Z" fill="#F5AC37"/>
<path d="M25.6872 26.7451H35.0995C35.2984 26.7451 35.3978 26.7451 35.4069 26.4829C35.4883 25.5245 35.4883 24.5661 35.4069 23.6077C35.4069 23.4178 35.3165 23.3455 35.1085 23.3455H16.3834C16.1483 23.3455 16.085 23.4269 16.085 23.6438V26.4015C16.085 26.7542 16.085 26.7542 16.4557 26.7542H25.6872V26.7451ZM34.3581 20.1176C34.3852 20.0453 34.3852 19.973 34.3581 19.9006C34.2043 19.5571 34.0145 19.2316 33.7975 18.9241C33.472 18.3997 33.0922 17.9205 32.6492 17.4865C32.4412 17.2243 32.2062 16.9892 31.9349 16.7903C30.5968 15.6511 29.0054 14.8464 27.2875 14.4395C26.4195 14.2496 25.5425 14.1502 24.6564 14.1592H16.3382C16.1031 14.1592 16.076 14.2496 16.076 14.4576V19.9549C16.076 20.19 16.076 20.2533 16.3743 20.2533H34.2405C34.2405 20.2533 34.3942 20.2261 34.4304 20.1267H34.3581V20.1176ZM34.3581 29.9639C34.0958 29.9368 33.8336 29.9368 33.5624 29.9639H16.4015C16.1664 29.9639 16.094 29.9639 16.094 30.2713V35.642C16.094 35.8862 16.094 35.9495 16.4015 35.9495H24.3309C24.7107 35.9766 25.0904 35.9495 25.4611 35.8681C26.6094 35.7867 27.7396 35.5335 28.8246 35.1267C29.2134 34.991 29.5931 34.8102 29.9548 34.6023H30.0633C31.9259 33.6348 33.4268 32.1158 34.3852 30.2533C34.3761 30.2623 34.4846 30.0363 34.3581 29.9639ZM12.9747 38.7433V38.6529V35.0453V33.8247V30.19C12.9747 29.991 12.9747 29.9549 12.7306 29.9549H9.3671C9.17722 29.9549 9.10489 29.9549 9.10489 29.7108V26.7632H12.6944C12.8933 26.7632 12.9747 26.7632 12.9747 26.501V23.5896C12.9747 23.3997 12.9747 23.3545 12.7306 23.3545H9.3671C9.17722 23.3545 9.10489 23.3545 9.10489 23.1104V20.3889C9.10489 20.2171 9.10489 20.1719 9.34901 20.1719H12.6763C12.9114 20.1719 12.9747 20.1719 12.9747 19.8735V11.5281C12.9747 11.284 12.9747 11.2207 13.2821 11.2207H24.8915C25.7324 11.2569 26.5732 11.3473 27.396 11.501C29.1049 11.8174 30.7414 12.4232 32.2423 13.3003C33.2369 13.888 34.1501 14.5932 34.9638 15.407C35.5787 16.0399 36.1302 16.7361 36.6184 17.4684C37.1067 18.2099 37.5136 19.0055 37.83 19.8373C37.8662 20.0543 38.0741 20.199 38.2911 20.1628H41.0669C41.4195 20.1628 41.4195 20.1628 41.4376 20.5064V23.0471C41.4376 23.2912 41.3472 23.3545 41.094 23.3545H38.9602C38.7432 23.3545 38.6799 23.3545 38.698 23.6348C38.7794 24.5751 38.7794 25.5245 38.698 26.4648C38.698 26.727 38.698 26.7632 38.9964 26.7632H41.4376C41.5461 26.8988 41.4376 27.0435 41.4376 27.1791C41.4557 27.3599 41.4557 27.5408 41.4376 27.7216V29.5932C41.4376 29.8554 41.3562 29.9368 41.1302 29.9368H38.2007C37.9928 29.9006 37.7939 30.0272 37.7486 30.2352C37.0524 32.0435 35.9403 33.671 34.4937 34.973C33.9693 35.4431 33.4177 35.8952 32.8391 36.3021C32.2152 36.6547 31.6185 37.0344 30.9765 37.3238C29.8101 37.8482 28.5805 38.237 27.3237 38.4811C26.1302 38.6981 24.9186 38.7885 23.698 38.7795H12.9747V38.7433Z" fill="#FEFEFD"/>
</g>
<defs>
<clipPath id="clip0_8_17">
<rect width="50" height="50" fill="white"/>
</clipPath>
</defs>
</svg>
