<svg xmlns:xlink="http://www.w3.org/1999/xlink" xmlns="http://www.w3.org/2000/svg" width="94" height="29" viewBox="0 0 94 29" fill="none">
<g clip-path="url(#clip0_13_611)">
<path d="M23.1667 10.912C22.6476 10.3577 22.0275 9.93724 21.3087 9.64598C20.5876 9.35471 19.796 9.21143 18.9363 9.21143C18.0226 9.21143 17.1793 9.3688 16.4065 9.68591C15.6337 10.003 14.9666 10.447 14.4029 11.0177C13.8415 11.5885 13.4022 12.2744 13.0851 13.0754C12.768 13.874 12.6107 14.7502 12.6107 15.6991C12.6107 16.5941 12.7539 17.4397 13.0452 18.2289C13.3341 19.0205 13.7475 19.704 14.2831 20.2842C14.8186 20.8644 15.474 21.3248 16.2468 21.6677C17.0196 22.0107 17.891 22.1822 18.8564 22.1822C20.0168 22.1822 21.0362 21.9942 21.9147 21.6161C22.7932 21.2379 23.6012 20.5755 24.3388 19.6265L22.7838 18.4145C22.2929 19.0299 21.7386 19.495 21.1231 19.8121C20.5077 20.1292 19.7514 20.2866 18.8564 20.2866C18.295 20.2866 17.7759 20.1809 17.3014 19.9695C16.827 19.7581 16.4136 19.4739 16.0636 19.1121C15.7112 18.7527 15.427 18.3299 15.2062 17.8461C14.9854 17.3645 14.8586 16.8572 14.8233 16.331H24.7875V15.671C24.7875 14.6515 24.6465 13.7425 24.3646 12.9439C24.0828 12.1452 23.6835 11.4664 23.1643 10.9144L23.1667 10.912ZM14.8233 14.5905C14.9643 13.5358 15.3847 12.6925 16.0894 12.0607C16.7917 11.4288 17.7149 11.1117 18.8564 11.1117C19.998 11.1117 20.8953 11.4288 21.5459 12.0607C22.1942 12.6925 22.5395 13.5358 22.5724 14.5905H14.8233Z" fill="white"/>
<path d="M37.2955 10.912C36.7763 10.3577 36.1562 9.93724 35.4375 9.64598C34.7163 9.35471 33.9248 9.21143 33.065 9.21143C32.1513 9.21143 31.3081 9.3688 30.5353 9.68591C29.7625 10.003 29.0954 10.447 28.5316 11.0177C27.9702 11.5885 27.531 12.2744 27.2139 13.0754C26.8968 13.874 26.7394 14.7502 26.7394 15.6991C26.7394 16.5941 26.8827 17.4397 27.174 18.2289C27.4629 19.0205 27.8763 19.704 28.4118 20.2842C28.9474 20.8644 29.6027 21.3248 30.3755 21.6677C31.1483 22.0107 32.0198 22.1822 32.9852 22.1822C34.1456 22.1822 35.165 21.9942 36.0435 21.6161C36.922 21.2379 37.73 20.5755 38.4676 19.6265L36.9126 18.4145C36.4217 19.0299 35.8673 19.495 35.2519 19.8121C34.6365 20.1292 33.8801 20.2866 32.9852 20.2866C32.4238 20.2866 31.9047 20.1809 31.4302 19.9695C30.9557 19.7581 30.5423 19.4739 30.1923 19.1121C29.84 18.7527 29.5558 18.3299 29.335 17.8461C29.1142 17.3645 28.9873 16.8572 28.9521 16.331H38.9162V15.671C38.9162 14.6515 38.7753 13.7425 38.4934 12.9439C38.2115 12.1452 37.8122 11.4664 37.2931 10.9144L37.2955 10.912ZM28.9521 14.5905C29.093 13.5358 29.5135 12.6925 30.2182 12.0607C30.9205 11.4288 31.8436 11.1117 32.9852 11.1117C34.1268 11.1117 35.024 11.4288 35.6747 12.0607C36.323 12.6925 36.6683 13.5358 36.7012 14.5905H28.9521Z" fill="white"/>
<path d="M52.702 11.0577C52.1383 10.4775 51.4594 10.0242 50.6585 9.7C49.8575 9.37585 48.9743 9.21143 48.0089 9.21143C47.1116 9.21143 46.2895 9.39699 45.5449 9.76577C44.7979 10.1346 44.1426 10.6537 43.5812 11.3208H43.5271V9.52853H41.4695V27.8736H43.5271V19.6759H43.5812C43.9664 20.3805 44.5771 20.9725 45.4133 21.4563C46.2472 21.9379 47.2196 22.1798 48.326 22.1798C49.188 22.1798 49.9961 22.0177 50.7524 21.6912C51.5064 21.3671 52.1618 20.9137 52.7161 20.3336C53.2705 19.7534 53.705 19.0675 54.0221 18.2759C54.3392 17.4867 54.4966 16.6246 54.4966 15.6921C54.4966 14.7596 54.3392 13.8999 54.0221 13.1083C53.705 12.3167 53.2658 11.6332 52.7044 11.053L52.702 11.0577ZM51.9762 17.5031C51.7742 18.0575 51.4782 18.539 51.093 18.9524C50.7054 19.3658 50.2451 19.69 49.7095 19.9272C49.1739 20.1644 48.5726 20.2842 47.9032 20.2842C47.2337 20.2842 46.6324 20.1644 46.0969 19.9272C45.5613 19.69 45.0986 19.3658 44.7133 18.9524C44.3258 18.539 44.0322 18.0551 43.8301 17.5031C43.6281 16.9488 43.5271 16.3474 43.5271 15.6968C43.5271 15.0461 43.6281 14.4448 43.8301 13.8905C44.0322 13.3361 44.3258 12.8546 44.7133 12.4412C45.0986 12.0278 45.5613 11.7036 46.0969 11.4664C46.6324 11.2291 47.2337 11.1094 47.9032 11.1094C48.5726 11.1094 49.1739 11.2291 49.7095 11.4664C50.2451 11.7036 50.7078 12.0301 51.093 12.4412C51.4782 12.8546 51.7742 13.3361 51.9762 13.8905C52.1782 14.4448 52.2792 15.0461 52.2792 15.6968C52.2792 16.3474 52.1782 16.9488 51.9762 17.5031Z" fill="white"/>
<path d="M78.5589 10.9614C78.0398 10.407 77.4197 9.98656 76.7009 9.69529C75.9798 9.40403 75.1882 9.26074 74.3285 9.26074C73.4148 9.26074 72.5715 9.41812 71.7987 9.73522C71.0259 10.0523 70.3588 10.4963 69.7951 11.0671C69.2337 11.6378 68.7945 12.3237 68.4773 13.1247C68.1602 13.9233 68.0029 14.7995 68.0029 15.7485C68.0029 16.6434 68.1462 17.489 68.4374 18.2782C68.7263 19.0698 69.1397 19.7534 69.6753 20.3335C70.2109 20.9137 70.8662 21.3741 71.639 21.7171C72.4118 22.06 73.2832 22.2315 74.2486 22.2315C75.409 22.2315 76.4284 22.0436 77.3069 21.6654C78.1854 21.2872 78.9935 20.6248 79.731 19.6758L78.176 18.4638C77.6851 19.0792 77.1308 19.5443 76.5153 19.8614C75.8999 20.1785 75.1436 20.3359 74.2486 20.3359C73.6873 20.3359 73.1681 20.2302 72.6937 20.0188C72.2192 19.8074 71.8058 19.5232 71.4558 19.1614C71.1034 18.802 70.8192 18.3792 70.5984 17.8954C70.3776 17.4138 70.2508 16.9065 70.2155 16.3803H80.1797V15.7203C80.1797 14.7008 80.0387 13.7918 79.7569 12.9932C79.475 12.1945 79.0757 11.5157 78.5566 10.9637L78.5589 10.9614ZM70.2155 14.6398C70.3565 13.5851 70.7769 12.7418 71.4816 12.11C72.1839 11.4781 73.1071 11.161 74.2486 11.161C75.3902 11.161 76.2875 11.4781 76.9382 12.11C77.5865 12.7418 77.9318 13.5851 77.9646 14.6398H70.2155Z" fill="white"/>
<path d="M91.0904 9.57788L87.4261 19.2507H87.3744L83.5527 9.57788H81.1544L86.2681 21.9943L85.4248 24.315C85.1969 24.9304 84.9245 25.4213 84.6074 25.7901C84.2903 26.1589 83.7993 26.3445 83.1299 26.3445C82.8316 26.3445 82.5685 26.3327 82.3407 26.3045C82.1128 26.2787 81.892 26.22 81.6806 26.1331L81.4175 27.9253C81.6994 28.0662 82.0024 28.1531 82.3266 28.1884C82.6531 28.2236 82.9631 28.24 83.2614 28.24C83.8768 28.24 84.3983 28.1555 84.8305 27.9887C85.2604 27.8219 85.6291 27.5847 85.9369 27.277C86.2446 26.9693 86.5076 26.6005 86.7284 26.1706C86.9469 25.7384 87.163 25.2616 87.3744 24.7331L93.3312 9.57788H91.0904Z" fill="white"/>
<path d="M11.2647 9.52852H8.34033L2.72407 14.9592V0.76001H0.668762V17.6558V21.865V21.8768H2.72407V21.865V17.6558V15.3797L8.84065 21.865H11.8708L5.30788 15.1424L11.2647 9.52852Z" fill="white"/>
<path d="M67.0281 9.52852H64.1013L58.4874 14.9592V0.76001H56.4321V17.6558V21.865V21.8768H58.4874V21.865V17.6558V15.3797L64.604 21.865H67.6341L61.0712 15.1424L67.0281 9.52852Z" fill="white"/>
</g>
<defs>
<clipPath id="clip0_13_611">
<rect width="92.6625" height="27.48" fill="white" transform="translate(0.668762 0.76001)"/>
</clipPath>
</defs>
</svg>