<svg xmlns:xlink="http://www.w3.org/1999/xlink" xmlns="http://www.w3.org/2000/svg" width="151" height="29" viewBox="0 0 151 29" fill="none">
<path d="M133.497 14.5803C132.718 14.0648 131.859 13.6982 131.045 13.24C130.518 12.9422 129.957 12.6787 129.499 12.3006C128.72 11.6591 128.88 10.399 129.694 9.8491C130.862 9.07011 132.798 9.50543 133.004 11.0978C133.004 11.1321 133.039 11.1551 133.073 11.1551H134.837C134.883 11.1551 134.917 11.1207 134.906 11.0749C134.814 9.97512 134.391 9.05866 133.612 8.47441C132.867 7.91308 132.019 7.61523 131.114 7.61523C126.452 7.61523 126.028 12.5527 128.537 14.1106C128.823 14.2939 131.286 15.5311 132.157 16.0696C133.027 16.608 133.302 17.5932 132.924 18.3722C132.581 19.0824 131.687 19.575 130.793 19.5177C129.82 19.4605 129.064 18.9335 128.8 18.1087C128.754 17.9598 128.731 17.6734 128.731 17.5474C128.731 17.513 128.697 17.4786 128.663 17.4786H126.75C126.715 17.4786 126.681 17.513 126.681 17.5474C126.681 18.9335 127.024 19.701 127.964 20.3998C128.846 21.0643 129.808 21.3392 130.805 21.3392C133.417 21.3392 134.769 19.8614 135.043 18.3263C135.284 16.8256 134.837 15.4739 133.497 14.5803Z" fill="white"/>
<path d="M50.4314 7.86731H49.5837H48.6558C48.6214 7.86731 48.5985 7.89022 48.5871 7.91313L47.0177 13.0911C46.9947 13.1599 46.9031 13.1599 46.8802 13.0911L45.3108 7.91313C45.2993 7.87876 45.2764 7.86731 45.242 7.86731H44.3141H43.4664H42.3208C42.2865 7.86731 42.2521 7.90168 42.2521 7.93604V21.156C42.2521 21.1903 42.2865 21.2247 42.3208 21.2247H44.2339C44.2683 21.2247 44.3027 21.1903 44.3027 21.156V11.1093C44.3027 11.0291 44.4172 11.0176 44.4401 11.0864L46.021 16.2987L46.1356 16.6653C46.147 16.6997 46.1699 16.7111 46.2043 16.7111H47.6706C47.705 16.7111 47.7279 16.6882 47.7394 16.6653L47.8539 16.2987L49.4348 11.0864C49.4577 11.0062 49.5723 11.0291 49.5723 11.1093V21.156C49.5723 21.1903 49.6066 21.2247 49.641 21.2247H51.5541C51.5885 21.2247 51.6228 21.1903 51.6228 21.156V7.93604C51.6228 7.90168 51.5885 7.86731 51.5541 7.86731H50.4314Z" fill="white"/>
<path d="M104.205 7.86731C104.17 7.86731 104.147 7.89022 104.136 7.91313L102.566 13.0911C102.544 13.1599 102.452 13.1599 102.429 13.0911L100.86 7.91313C100.848 7.87876 100.825 7.86731 100.791 7.86731H97.8811C97.8467 7.86731 97.8123 7.90168 97.8123 7.93604V21.156C97.8123 21.1903 97.8467 21.2247 97.8811 21.2247H99.7942C99.8286 21.2247 99.8629 21.1903 99.8629 21.156V11.1093C99.8629 11.0291 99.9775 11.0176 100 11.0864L101.581 16.2987L101.696 16.6653C101.707 16.6997 101.73 16.7111 101.765 16.7111H103.231C103.265 16.7111 103.288 16.6882 103.3 16.6653L103.414 16.2987L104.995 11.0864C105.018 11.0062 105.133 11.0291 105.133 11.1093V21.156C105.133 21.1903 105.167 21.2247 105.201 21.2247H107.114C107.149 21.2247 107.183 21.1903 107.183 21.156V7.93604C107.183 7.90168 107.149 7.86731 107.114 7.86731H104.205Z" fill="white"/>
<path d="M79.529 7.86731H75.9663H74.0532H70.4904C70.4561 7.86731 70.4217 7.90168 70.4217 7.93604V9.58567C70.4217 9.62004 70.4561 9.6544 70.4904 9.6544H73.9844V21.156C73.9844 21.1903 74.0188 21.2247 74.0532 21.2247H75.9663C76.0006 21.2247 76.035 21.1903 76.035 21.156V9.6544H79.529C79.5634 9.6544 79.5977 9.62004 79.5977 9.58567V7.93604C79.5977 7.90168 79.5748 7.86731 79.529 7.86731Z" fill="white"/>
<path d="M90.8129 21.2247H92.5542C92.6 21.2247 92.6344 21.1789 92.6229 21.1331L89.0258 7.86736C89.0144 7.83299 88.9914 7.82153 88.9571 7.82153H88.2926H87.1242H86.4597C86.4254 7.82153 86.4024 7.84445 86.391 7.86736L82.7939 21.1331C82.7824 21.1789 82.8168 21.2247 82.8626 21.2247H84.6039C84.6383 21.2247 84.6612 21.2018 84.6726 21.1789L85.7151 17.3183C85.7266 17.284 85.7495 17.2725 85.7838 17.2725H89.633C89.6673 17.2725 89.6902 17.2954 89.7017 17.3183L90.7442 21.1789C90.7556 21.2018 90.79 21.2247 90.8129 21.2247ZM86.2421 15.3823L87.6397 10.2158C87.6626 10.147 87.7542 10.147 87.7771 10.2158L89.1747 15.3823C89.1862 15.4281 89.1518 15.474 89.106 15.474H86.3108C86.265 15.474 86.2306 15.4281 86.2421 15.3823Z" fill="white"/>
<path d="M120.506 21.2247H122.247C122.293 21.2247 122.328 21.1789 122.316 21.1331L118.719 7.86736C118.708 7.83299 118.685 7.82153 118.65 7.82153H117.986H116.817H116.153C116.119 7.82153 116.096 7.84445 116.084 7.86736L112.487 21.1331C112.476 21.1789 112.51 21.2247 112.556 21.2247H114.297C114.332 21.2247 114.354 21.2018 114.366 21.1789L115.408 17.3183C115.42 17.284 115.443 17.2725 115.477 17.2725H119.326C119.361 17.2725 119.383 17.2954 119.395 17.3183L120.437 21.1789C120.449 21.2018 120.472 21.2247 120.506 21.2247ZM115.935 15.3823L117.333 10.2158C117.356 10.147 117.447 10.147 117.47 10.2158L118.868 15.3823C118.879 15.4281 118.845 15.474 118.799 15.474H116.004C115.958 15.474 115.924 15.4281 115.935 15.3823Z" fill="white"/>
<path d="M59.3898 19.2657V15.1645C59.3898 15.1301 59.4242 15.0958 59.4586 15.0958H64.5564C64.5907 15.0958 64.6251 15.0614 64.6251 15.027V13.3774C64.6251 13.343 64.5907 13.3087 64.5564 13.3087H59.4586C59.4242 13.3087 59.3898 13.2743 59.3898 13.2399V9.73449C59.3898 9.70012 59.4242 9.66576 59.4586 9.66576H65.2552C65.2895 9.66576 65.3239 9.63139 65.3239 9.59702V7.9474C65.3239 7.91303 65.2895 7.87866 65.2552 7.87866H59.3898H57.408C57.3736 7.87866 57.3392 7.91303 57.3392 7.9474V9.66576V13.3201V15.1072V19.3458V21.1559C57.3392 21.1902 57.3736 21.2246 57.408 21.2246H59.3898H65.4957C65.5301 21.2246 65.5645 21.1902 65.5645 21.1559V19.4146C65.5645 19.3802 65.5301 19.3458 65.4957 19.3458H59.4471C59.4127 19.3344 59.3898 19.3115 59.3898 19.2657Z" fill="white"/>
<path d="M150.978 21.11L144.357 14.271C144.334 14.2481 144.334 14.2022 144.357 14.1793L150.314 7.99322C150.36 7.9474 150.325 7.87866 150.268 7.87866H147.828C147.805 7.87866 147.794 7.89012 147.782 7.90157L142.73 13.1483C142.684 13.1941 142.616 13.1598 142.616 13.1025V7.9474C142.616 7.91303 142.581 7.87866 142.547 7.87866H140.634C140.6 7.87866 140.565 7.91303 140.565 7.9474V21.1673C140.565 21.2017 140.6 21.236 140.634 21.236H142.547C142.581 21.236 142.616 21.2017 142.616 21.1673V15.3478C142.616 15.2905 142.696 15.2562 142.73 15.302L148.458 21.2131C148.47 21.2246 148.492 21.236 148.504 21.236H150.944C150.99 21.2246 151.024 21.1444 150.978 21.11Z" fill="white"/>
<path d="M29.1811 0.753174L17.5994 9.34497L19.753 4.28154L29.1811 0.753174Z" fill="#E17726" stroke="#E17726" stroke-linecap="round" stroke-linejoin="round"/>
<path d="M2.46635 0.753174L13.945 9.42516L11.8944 4.28154L2.46635 0.753174Z" fill="#E27625" stroke="#E27625" stroke-linecap="round" stroke-linejoin="round"/>
<path d="M25.0112 20.6747L21.9296 25.3944L28.5281 27.2159L30.4183 20.7778L25.0112 20.6747Z" fill="#E27625" stroke="#E27625" stroke-linecap="round" stroke-linejoin="round"/>
<path d="M1.24058 20.7778L3.11932 27.2159L9.70636 25.3944L6.63623 20.6747L1.24058 20.7778Z" fill="#E27625" stroke="#E27625" stroke-linecap="round" stroke-linejoin="round"/>
<path d="M9.35124 12.7015L7.51832 15.4738L14.0481 15.7716L13.8304 8.72632L9.35124 12.7015Z" fill="#E27625" stroke="#E27625" stroke-linecap="round" stroke-linejoin="round"/>
<path d="M22.2962 12.7015L17.7483 8.64612L17.5993 15.7716L24.1291 15.4738L22.2962 12.7015Z" fill="#E27625" stroke="#E27625" stroke-linecap="round" stroke-linejoin="round"/>
<path d="M9.70637 25.3944L13.6586 23.4813L10.2562 20.8236L9.70637 25.3944Z" fill="#E27625" stroke="#E27625" stroke-linecap="round" stroke-linejoin="round"/>
<path d="M17.9888 23.4813L21.9296 25.3944L21.3912 20.8236L17.9888 23.4813Z" fill="#E27625" stroke="#E27625" stroke-linecap="round" stroke-linejoin="round"/>
<path d="M21.9296 25.3944L17.9889 23.4813L18.3096 26.0474L18.2753 27.1357L21.9296 25.3944Z" fill="#D5BFB2" stroke="#D5BFB2" stroke-linecap="round" stroke-linejoin="round"/>
<path d="M9.70637 25.3944L13.3722 27.1357L13.3493 26.0474L13.6586 23.4813L9.70637 25.3944Z" fill="#D5BFB2" stroke="#D5BFB2" stroke-linecap="round" stroke-linejoin="round"/>
<path d="M13.4409 19.1282L10.1646 18.166L12.4786 17.1006L13.4409 19.1282Z" fill="#233447" stroke="#233447" stroke-linecap="round" stroke-linejoin="round"/>
<path d="M18.2065 19.1282L19.1688 17.1006L21.4943 18.166L18.2065 19.1282Z" fill="#233447" stroke="#233447" stroke-linecap="round" stroke-linejoin="round"/>
<path d="M9.70635 25.3944L10.2791 20.6747L6.63622 20.7778L9.70635 25.3944Z" fill="#CC6228" stroke="#CC6228" stroke-linecap="round" stroke-linejoin="round"/>
<path d="M21.3683 20.6747L21.9296 25.3944L25.0112 20.7778L21.3683 20.6747Z" fill="#CC6228" stroke="#CC6228" stroke-linecap="round" stroke-linejoin="round"/>
<path d="M24.1291 15.4738L17.5994 15.7716L18.2065 19.1281L19.1688 17.1005L21.4943 18.1659L24.1291 15.4738Z" fill="#CC6228" stroke="#CC6228" stroke-linecap="round" stroke-linejoin="round"/>
<path d="M10.1646 18.1659L12.4786 17.1005L13.4409 19.1281L14.0481 15.7716L7.51831 15.4738L10.1646 18.1659Z" fill="#CC6228" stroke="#CC6228" stroke-linecap="round" stroke-linejoin="round"/>
<path d="M7.51832 15.4738L10.2562 20.8236L10.1646 18.1659L7.51832 15.4738Z" fill="#E27525" stroke="#E27525" stroke-linecap="round" stroke-linejoin="round"/>
<path d="M21.4943 18.1659L21.3912 20.8236L24.1291 15.4738L21.4943 18.1659Z" fill="#E27525" stroke="#E27525" stroke-linecap="round" stroke-linejoin="round"/>
<path d="M14.0481 15.7716L13.4409 19.1281L14.2085 23.0918L14.3803 17.868L14.0481 15.7716Z" fill="#E27525" stroke="#E27525" stroke-linecap="round" stroke-linejoin="round"/>
<path d="M17.5994 15.7716L17.2786 17.8565L17.439 23.0918L18.2065 19.1281L17.5994 15.7716Z" fill="#E27525" stroke="#E27525" stroke-linecap="round" stroke-linejoin="round"/>
<path d="M18.2065 19.1282L17.439 23.0919L17.9889 23.4814L21.3912 20.8236L21.4943 18.1659L18.2065 19.1282Z" fill="#F5841F" stroke="#F5841F" stroke-linecap="round" stroke-linejoin="round"/>
<path d="M10.1646 18.1659L10.2562 20.8236L13.6586 23.4814L14.2084 23.0919L13.4409 19.1282L10.1646 18.1659Z" fill="#F5841F" stroke="#F5841F" stroke-linecap="round" stroke-linejoin="round"/>
<path d="M18.2753 27.1358L18.3096 26.0475L18.0118 25.7955H13.6357L13.3493 26.0475L13.3722 27.1358L9.70637 25.3945L10.9894 26.4485L13.5899 28.247H18.0461L20.658 26.4485L21.9296 25.3945L18.2753 27.1358Z" fill="#C0AC9D" stroke="#C0AC9D" stroke-linecap="round" stroke-linejoin="round"/>
<path d="M17.9889 23.4814L17.439 23.0919H14.2085L13.6586 23.4814L13.3493 26.0475L13.6357 25.7955H18.0118L18.3096 26.0475L17.9889 23.4814Z" fill="white" stroke="white" stroke-linecap="round" stroke-linejoin="round"/>
<path d="M29.6737 9.9063L30.6474 5.16363L29.1811 0.753174L17.9889 9.05858L22.2962 12.7015L28.3792 14.4771L29.7195 12.9077L29.1353 12.4838L30.0632 11.6361L29.353 11.0862L30.2809 10.376L29.6737 9.9063Z" fill="#763E1A" stroke="#763E1A" stroke-linecap="round" stroke-linejoin="round"/>
<path d="M1 5.16363L1.98519 9.9063L1.35513 10.376L2.2945 11.0862L1.58424 11.6361L2.51216 12.4838L1.92792 12.9077L3.26824 14.4771L9.35123 12.7015L13.6586 9.05858L2.46634 0.753174L1 5.16363Z" fill="#763E1A" stroke="#763E1A" stroke-linecap="round" stroke-linejoin="round"/>
<path d="M28.3792 14.4771L22.2962 12.7014L24.1291 15.4737L21.3912 20.8235L25.0112 20.7777H30.4183L28.3792 14.4771Z" fill="#F5841F" stroke="#F5841F" stroke-linecap="round" stroke-linejoin="round"/>
<path d="M9.35123 12.7014L3.26824 14.4771L1.24057 20.7777H6.63622L10.2562 20.8235L7.51831 15.4737L9.35123 12.7014Z" fill="#F5841F" stroke="#F5841F" stroke-linecap="round" stroke-linejoin="round"/>
<path d="M17.5994 15.7716L17.9889 9.05853L19.753 4.28149H11.8944L13.6586 9.05853L14.0481 15.7716L14.197 17.8794L14.2085 23.0918H17.439L17.4504 17.8794L17.5994 15.7716Z" fill="#F5841F" stroke="#F5841F" stroke-linecap="round" stroke-linejoin="round"/>
</svg>