<svg xmlns:xlink="http://www.w3.org/1999/xlink" xmlns="http://www.w3.org/2000/svg" width="90" height="27" viewBox="0 0 90 27" fill="none">
<path d="M1.04745 15.5439L1.69619 15.2638L9.68746 11.7842L18.3275 15.5439L15.0838 22.2524L7.15148 23.373L1.18015 16.9298L1.04745 15.5439Z" fill="#133444"/>
<path d="M16.5434 11.4156C15.1132 9.69052 13.0933 8.58471 10.8817 8.28983L10.7343 8.27509C10.0413 8.18662 9.34833 8.18662 8.65536 8.27509L8.50792 8.28983C6.29632 8.58471 4.27639 9.70526 2.84622 11.4156L2.49236 12.0053L1.88786 12.9932L1.44553 13.7156C1.44553 13.7304 1.43079 13.7599 1.41605 13.7746V13.7894L2.37441 14.3644L8.49318 17.9914L9.6727 18.6844V10.0296L8.49318 10.5604V9.26294L9.6727 8.73215L10.8522 9.26294L16.8678 12.0053L16.5434 11.4156Z" fill="#C42370"/>
<path d="M18.5928 17.6966C18.5781 20.5422 17.2954 23.2256 15.0985 25.0244C14.2581 25.7173 13.3145 26.2334 12.2824 26.5872C11.442 26.8674 10.5721 27.0001 9.68744 27.0001C4.76293 27.0001 0.767303 22.6211 0.767303 17.6966C0.767303 16.9741 0.855768 16.2517 1.0327 15.5439L9.6727 20.6601L18.3127 15.5439C18.5044 16.2517 18.6076 16.9741 18.5928 17.6966Z" fill="#1C4D6B"/>
<path d="M8.65534 8.27501L9.68743 8.73208L8.5079 9.27761V8.20129L8.65534 8.27501Z" fill="black"/>
<path d="M8.5079 10.5752L9.68743 10.0297V18.6992L8.5079 17.9914V10.5752Z" fill="black"/>
<path d="M9.68744 10.0297V18.6992L17.9736 13.8041L9.68744 10.0297Z" fill="#1D4259"/>
<path d="M9.68744 0.0626221V10.0296L17.9736 13.8041L9.68744 0.0626221Z" fill="#4B6B9A"/>
<path d="M9.68745 10.0296V18.6843L8.50793 17.9913L1.41605 13.804H1.40131H1.41605C1.41605 13.7893 1.43079 13.7598 1.44554 13.7451L2.47762 12.02L8.49318 9.29236V10.5751L9.68745 10.0296Z" fill="#343535"/>
<path d="M9.68745 10.0297V18.6992L8.50792 17.9914L1.41605 13.8041L1.43079 13.7894L8.50792 10.5752L9.68745 10.0297Z" fill="#3E5578"/>
<path d="M9.68745 0.0626221V10.0296L1.41605 13.8041L9.68745 0.0626221Z" fill="#6DB2D8"/>
<path d="M6.34055 26.2924C6.4585 26.3513 6.59119 26.3956 6.70915 26.4398C6.59119 26.3956 6.47324 26.3366 6.34055 26.2924Z" fill="#335F8A"/>
<path d="M6.70914 26.4398C6.82709 26.4841 6.95979 26.543 7.09248 26.5725C6.97453 26.543 6.84183 26.4988 6.70914 26.4398Z" fill="#335F8A"/>
<path d="M7.43161 26.6757C7.53482 26.7051 7.62328 26.7346 7.72649 26.7494C7.62328 26.7346 7.52007 26.7051 7.43161 26.6757Z" fill="#335F8A"/>
<path d="M1.04744 15.5439L9.68744 20.6601C9.56948 21.4416 9.36307 22.1935 9.06819 22.9307C8.37522 24.6115 6.98928 26.3808 4.27638 25.0244C2.07952 23.2256 0.796787 20.5422 0.782043 17.6966C0.782043 16.9741 0.870508 16.2517 1.04744 15.5439Z" fill="#6DB2D8"/>
<path d="M15.0985 25.0243L15.069 25.039C15.0248 25.0685 14.9805 25.1128 14.9363 25.1422L14.9216 25.157C14.8773 25.2012 14.8184 25.2307 14.7741 25.2749C14.7151 25.3192 14.6709 25.3634 14.6119 25.3929C14.553 25.4224 14.494 25.4666 14.4498 25.5108C14.3908 25.5551 14.3465 25.5698 14.3023 25.6141L14.2728 25.6288C14.2138 25.6583 14.1696 25.6878 14.1254 25.732C14.1254 25.732 14.1106 25.732 14.1106 25.7467C14.0517 25.7762 14.0074 25.8057 13.9485 25.85C13.8895 25.8794 13.8305 25.9089 13.7715 25.9532C13.7126 25.9827 13.6536 26.0121 13.5946 26.0416L13.4177 26.1301C13.3587 26.1596 13.2997 26.1891 13.2407 26.2186C13.1818 26.248 13.1228 26.2775 13.0638 26.307C12.9459 26.366 12.8132 26.4102 12.6952 26.4545C12.5773 26.4987 12.4446 26.5429 12.3119 26.5872C12.2676 26.6019 12.2087 26.6166 12.1644 26.6314L11.9875 26.6904C11.8843 26.7199 11.7958 26.7493 11.6926 26.7641C11.6631 26.7788 11.6189 26.7788 11.5747 26.7936L11.5157 26.8083L11.3535 26.8378C11.2945 26.8526 11.265 26.8526 11.2061 26.8673C11.1618 26.882 11.1176 26.882 11.0734 26.8968C11.0291 26.8968 10.9702 26.9115 10.9259 26.9263C10.8964 26.9263 10.8817 26.9263 10.8522 26.941L10.7343 26.9558H10.6753C10.6311 26.9558 10.5868 26.9705 10.5573 26.9705C10.5131 26.9705 10.4541 26.9852 10.4099 26.9852C10.3657 26.9852 10.3362 26.9852 10.2919 26.9852C10.2477 26.9852 10.2182 26.9852 10.1887 26.9852C10.1445 26.9852 10.1003 26.9852 10.0708 26.9852C10.0413 26.9852 9.95282 26.9852 9.90859 26.9852H9.55474C9.49576 26.9852 9.43678 26.9852 9.39255 26.9852C9.34832 26.9852 9.30409 26.9852 9.2746 26.9852C9.24511 26.9852 9.20088 26.9852 9.17139 26.9852C9.1419 26.9852 9.09767 26.9852 9.05344 26.9852C9.00921 26.9852 8.95023 26.9705 8.906 26.9705C8.86177 26.9705 8.81753 26.9705 8.78805 26.9558H8.72907C8.69958 26.9558 8.65535 26.941 8.61112 26.941C8.58163 26.941 8.56689 26.941 8.5374 26.9263C8.49317 26.9263 8.43419 26.9115 8.38996 26.8968C8.34573 26.8968 8.30149 26.882 8.25726 26.8673C8.21303 26.8673 8.15405 26.8526 8.10982 26.8378C8.06559 26.8231 8.00661 26.8083 7.94764 26.8083L7.88866 26.7936C7.84443 26.7936 7.8002 26.7788 7.77071 26.7788C7.6675 26.7493 7.56429 26.7199 7.47583 26.7051L7.2989 26.6461C7.23992 26.6314 7.19569 26.6167 7.15146 26.6019C7.01876 26.5577 6.90081 26.5134 6.76811 26.4692C6.63542 26.425 6.51747 26.366 6.39951 26.3218C6.34054 26.2923 6.28156 26.2628 6.22258 26.2333L6.04566 26.1448L5.86873 26.0564C5.80975 26.0269 5.75078 25.9974 5.6918 25.9679C5.63282 25.9384 5.57385 25.9089 5.51487 25.8647C5.4559 25.8352 5.41166 25.8057 5.35269 25.7615L5.33794 25.7467C5.27897 25.7173 5.23474 25.6878 5.1905 25.6435L5.16102 25.6288C5.11678 25.5993 5.05781 25.5698 5.01358 25.5256C4.96934 25.4961 4.89562 25.4519 4.85139 25.4076C4.79241 25.3634 4.73344 25.3339 4.68921 25.2897L4.54177 25.1717L4.52702 25.157C4.48279 25.1275 4.43856 25.0833 4.39433 25.0538L4.36484 25.039C7.06299 26.3807 8.46368 24.6115 9.15665 22.9454C9.45153 22.2229 9.65794 21.4562 9.7759 20.6748C9.89385 21.4562 10.1003 22.2082 10.3951 22.9454C10.9997 24.5967 12.4003 26.366 15.0985 25.0243Z" fill="#529BBA"/>
<path d="M11.6631 26.7641C11.7664 26.7347 11.8696 26.7052 11.958 26.6904C11.8696 26.7052 11.7664 26.7347 11.6631 26.7641Z" fill="#335F8A"/>
<path d="M12.2824 26.5725C12.4151 26.5283 12.533 26.4841 12.6657 26.4398C12.5478 26.4988 12.4151 26.543 12.2824 26.5725Z" fill="#335F8A"/>
<path d="M12.6657 26.4398C12.7837 26.3956 12.9164 26.3366 13.0343 26.2924C12.9164 26.3366 12.7984 26.3956 12.6657 26.4398Z" fill="#335F8A"/>
<path d="M18.5928 17.6966C18.5781 20.5422 17.2954 23.2256 15.0985 25.0244C12.4003 26.3661 10.9997 24.5968 10.3067 22.9307C10.0118 22.2082 9.80539 21.4416 9.68744 20.6601L18.3274 15.5439C18.5044 16.2517 18.5928 16.9741 18.5928 17.6966Z" fill="#4B6B9A"/>
<path d="M28.1322 26.7346H25.1982V7.16931H28.1322V8.55525C29.297 7.39047 30.5945 6.8302 32.0541 6.8302C33.7939 6.8302 35.2388 7.46419 36.3594 8.76167C37.5094 10.0444 38.0697 11.6368 38.0697 13.583C38.0697 15.4849 37.4947 17.0626 36.3594 18.3158C35.2831 19.5396 33.7349 20.2325 32.0984 20.203C30.624 20.203 29.2822 19.5985 28.1175 18.419V26.7346H28.1322ZM35.0914 13.5682C35.0914 12.3592 34.7523 11.3714 34.1035 10.6047C33.4843 9.85273 32.5554 9.42515 31.5823 9.43989C30.506 9.43989 29.6361 9.80849 28.9726 10.5604C28.3091 11.3124 27.97 12.2855 27.97 13.5092C27.97 14.6888 28.3091 15.6766 28.9726 16.458C29.6361 17.2247 30.506 17.5933 31.5676 17.5933C32.5259 17.6081 33.4548 17.1953 34.0741 16.4433C34.7523 15.6766 35.0914 14.7183 35.0914 13.5682Z" fill="white"/>
<path d="M40.5762 13.4208C40.5467 11.6515 41.2544 9.9707 42.5371 8.74695C43.8051 7.47896 45.5302 6.78599 47.3142 6.81548C49.2014 6.81548 50.8085 7.46422 52.1207 8.76169C53.433 10.0592 54.067 11.6368 54.067 13.5093C54.067 15.4112 53.4182 17.0036 52.106 18.2716C50.7938 19.5543 49.1719 20.1883 47.2552 20.1883C45.3385 20.1883 43.7609 19.5396 42.4929 18.2421C41.2249 16.9446 40.5762 15.3523 40.5762 13.4208ZM43.584 13.465C43.584 14.733 43.9231 15.7356 44.6013 16.4728C45.2795 17.2248 46.2084 17.5934 47.3437 17.5934C48.479 17.5934 49.4078 17.2248 50.0861 16.4876C50.7643 15.7504 51.1182 14.7773 51.1182 13.5388C51.1182 12.3003 50.779 11.3272 50.0861 10.59C49.4078 9.83801 48.479 9.4694 47.3437 9.4694C46.2084 9.4694 45.3238 9.83801 44.6308 10.59C43.9231 11.3272 43.584 12.2855 43.584 13.465Z" fill="white"/>
<path d="M57.1927 7.16929H60.1268V8.30458C60.6575 7.7443 61.1441 7.36096 61.5569 7.1398C62.0287 6.91864 62.5448 6.81543 63.0608 6.81543C63.8275 6.81543 64.6384 7.06608 65.4788 7.56738L64.1371 10.2508C63.5769 9.8527 63.0461 9.64629 62.5153 9.64629C60.9229 9.64629 60.112 10.8406 60.112 13.2586V19.8197H57.1779L57.1927 7.16929Z" fill="white"/>
<path d="M70.1674 9.89692V19.8344H67.2334V9.89692H65.9801V7.16927H67.2334V2.5249H70.1674V7.16927H72.438V9.89692H70.1674Z" fill="white"/>
<path d="M73.9862 1.89092C73.9862 1.38962 74.1778 0.903072 74.5464 0.563959C75.2984 -0.187986 76.5074 -0.187986 77.2446 0.563959C77.6132 0.917816 77.8196 1.40437 77.8048 1.90566C77.8196 2.42171 77.6132 2.90826 77.2446 3.26211C76.8907 3.63072 76.4042 3.83713 75.9029 3.82239C75.3868 3.83713 74.9003 3.63072 74.5464 3.26211C74.1778 2.90826 73.9714 2.40696 73.9862 1.89092ZM77.3625 7.16928V19.8344H74.4285V7.16928H77.3625Z" fill="white"/>
<path d="M88.4206 9.32191L85.9878 10.6194C85.6044 9.83795 85.1326 9.4546 84.5724 9.4546C84.3217 9.4546 84.0711 9.54307 83.8794 9.72C83.6877 9.89693 83.5845 10.1476 83.5993 10.3982C83.5993 10.8848 84.1595 11.3713 85.2948 11.8431C86.8577 12.5066 87.8898 13.1259 88.4206 13.7009C88.9513 14.2759 89.2315 15.0131 89.2315 15.9715C89.261 17.1362 88.7597 18.2715 87.875 19.0382C87.0051 19.8197 85.8698 20.2325 84.7051 20.203C82.5819 20.203 81.078 19.1709 80.1934 17.1068L82.6999 15.942C83.039 16.5612 83.3191 16.9446 83.4961 17.1068C83.8352 17.4311 84.307 17.6081 84.7788 17.5933C85.7666 17.5933 86.2532 17.1362 86.2532 16.2369C86.2532 15.7208 85.8698 15.2195 85.1031 14.7919C84.8083 14.6445 84.5134 14.4971 84.2185 14.3644C83.9236 14.2317 83.614 14.0842 83.3191 13.9368C82.464 13.524 81.8742 13.1111 81.5204 12.6835C81.078 12.1528 80.8569 11.4745 80.8569 10.6489C80.8569 9.54307 81.2255 8.64368 81.9922 7.92123C82.7441 7.21351 83.7614 6.81543 84.8083 6.84491C86.4301 6.81543 87.6244 7.65583 88.4206 9.32191Z" fill="white"/>
</svg>