<svg xmlns:xlink="http://www.w3.org/1999/xlink" xmlns="http://www.w3.org/2000/svg" width="132" height="27" viewBox="0 0 132 27" fill="none">
<path d="M116.094 21.3112H117.757V11.4652H116.094V21.3112ZM116.094 10.1961H117.757V8.53323H116.094V10.1961ZM39.733 8.44571C37.9388 8.44571 36.0134 9.14587 36.0134 10.8744C36.0134 12.406 37.7638 12.8436 39.8424 13.1937C42.6649 13.6313 45.4656 14.2002 45.4656 17.3947C45.4437 20.5673 42.4242 21.5956 39.7111 21.5956C37.1949 21.5956 34.8318 20.6767 33.7378 18.3136L35.1819 17.4603C36.1009 19.1451 37.9826 19.9546 39.733 19.9546C41.4396 19.9546 43.737 19.4076 43.737 17.329C43.7589 15.5786 41.7678 15.0754 39.6455 14.7472C36.9105 14.3314 34.263 13.6969 34.263 10.8306C34.2192 7.87682 37.2387 6.87034 39.6673 6.87034C41.7678 6.87034 43.7589 7.28606 45.028 9.43031L43.6933 10.2618C42.9494 9.03647 41.3083 8.46759 39.733 8.44571ZM48.4631 7.19854V12.9968C49.3165 11.684 50.6511 11.2464 51.9202 11.2245C54.7208 11.2245 56.0993 13.0843 56.0993 15.8412V21.3331H54.4583V15.863C54.4583 13.8938 53.4518 12.7998 51.6357 12.7998C49.8197 12.7998 48.485 14.2439 48.485 16.06V21.3331H46.8221V7.19854H48.4631ZM62.6852 12.7561C60.716 12.7561 59.1187 14.1783 59.1187 16.3882C59.1187 18.6199 60.716 20.0421 62.6852 20.0421C67.4988 20.0421 67.4988 12.7342 62.6852 12.7561ZM66.3173 21.3549L66.2735 19.5389C65.4858 20.9173 63.9761 21.5519 62.5976 21.5519C59.7314 21.5519 57.4777 19.5827 57.4777 16.3225C57.4777 13.0843 59.7532 11.1588 62.6195 11.1807C64.1074 11.1807 65.5952 11.859 66.3173 13.1499L66.3391 11.3339H67.9583V21.3112H66.361L66.3173 21.3549ZM78.2857 16.3882C78.2857 14.1564 76.8197 12.8217 74.763 12.8217C72.6844 12.8217 71.2622 14.3533 71.2622 16.3882C71.2622 18.423 72.7281 19.9546 74.763 19.9765C76.7759 19.9765 78.2857 18.6418 78.2857 16.3882ZM69.4899 11.3776H71.0652L71.1528 13.3031C71.9404 11.9684 73.4064 11.2026 74.9818 11.2026C77.8481 11.2682 79.9485 13.2812 79.9485 16.3444C79.9485 19.4951 77.8699 21.53 74.8724 21.53C73.4502 21.53 71.8748 20.9173 71.0871 19.517V26.0154H69.468L69.4899 11.3776ZM89.6195 15.6005C89.532 13.6532 88.1973 12.6029 86.25 12.6029C84.5215 12.6029 82.9899 13.6532 82.7054 15.5786L89.6195 15.6005ZM90.5823 19.7139C89.5758 20.8955 87.8254 21.4862 86.2719 21.4862C83.1868 21.4862 81.0207 19.4514 81.0207 16.2788C81.0207 13.2593 83.1868 11.1151 86.1844 11.1151C89.2257 11.1151 91.5669 12.9968 91.173 16.9789H82.6835C82.8586 18.8169 84.3902 19.9765 86.2938 19.9765C87.4315 19.9765 88.7881 19.5389 89.4664 18.7293L90.5823 19.7139ZM98.109 8.44571C96.3148 8.44571 94.3894 9.14587 94.3894 10.8744C94.3894 12.406 96.1398 12.8436 98.2184 13.1937C101.041 13.6313 103.842 14.2002 103.842 17.3947C103.82 20.5673 100.8 21.5956 98.0871 21.5956C95.5928 21.5956 93.2079 20.6767 92.1139 18.3136L93.5579 17.4603C94.4769 19.1451 96.3586 19.9546 98.109 19.9546C99.8156 19.9546 102.113 19.4076 102.113 17.329C102.135 15.5786 100.144 15.0754 98.0215 14.7472C95.3083 14.3314 92.6609 13.6969 92.6609 10.8306C92.6171 7.87682 95.6366 6.87034 98.0652 6.87034C100.166 6.87034 102.157 7.28606 103.426 9.43031L102.091 10.2618C101.325 9.03647 99.6844 8.46759 98.109 8.44571ZM106.817 7.19854V12.9968C107.671 11.684 109.005 11.2464 110.274 11.2245C113.075 11.2245 114.453 13.0843 114.453 15.8193V21.3112H112.812V15.8412C112.812 13.872 111.806 12.778 109.99 12.778C108.174 12.778 106.839 14.222 106.839 16.0381V21.3331H105.176V7.19854H106.817ZM122.877 10.6775C122.877 9.18962 123.556 8.51134 124.628 8.51134C124.65 8.51134 124.671 8.51134 124.693 8.51134L125.065 7.08914C124.912 7.06726 124.759 7.04538 124.584 7.04538C122.483 7.04538 121.236 8.38007 121.236 10.6556V11.4433H119.267V12.8874H121.236V21.2893H122.877V12.8874H124.868V11.4433H122.877V10.6775ZM131.323 19.9327C131.192 19.9546 131.06 19.9546 130.929 19.9546C129.748 19.9546 129.354 19.2107 129.354 18.0292V12.8874H131.476V11.4433H129.376V8.42383L127.713 8.59886V11.4652H125.722V12.9092H127.713V18.0511C127.713 20.2609 128.719 21.5081 130.863 21.4643C131.126 21.4643 131.389 21.4206 131.629 21.3768L131.323 19.9327ZM23.2573 2.25364L22.0539 9.43031L17.8092 4.41978L23.2573 2.25364ZM22.0758 12.5154L23.1479 16.4538L15.0085 18.6856L22.0758 12.5154ZM4.37479 10.5462L8.72893 4.8355H16.2994L21.1349 10.5462H4.37479ZM20.5879 11.9465L12.6892 18.8387L4.65924 11.9465H20.5879ZM7.26296 4.44165L3.36831 9.51783L2.16491 2.29741L7.26296 4.44165ZM10.3699 18.6856L2.14303 16.4538L3.25891 12.6248L10.3699 18.6856ZM11.8797 20.5673L10.3262 22.2739C9.01337 21.0267 7.56928 19.9109 6.0158 18.97L11.8797 20.5673ZM19.4064 18.9481C17.8529 19.9109 16.4307 21.0267 15.1179 22.2958L13.5425 20.5673L19.4064 18.9481ZM25.0515 0.0218814L16.4964 3.43517H8.53201L0.370743 0L2.23055 11.2026L0.458263 17.2634L5.09684 20.0421C7.28484 21.3549 9.25405 22.9959 10.9607 24.9214L12.7767 27L14.6803 24.8339C16.2994 22.9741 18.203 21.3549 20.3254 20.064L24.8764 17.2634L23.2354 11.2026L25.0515 0.0218814Z" fill="white"/>
</svg>