<svg xmlns="http://www.w3.org/2000/svg" xmlns:xlink="http://www.w3.org/1999/xlink" width="57" height="62" viewBox="0 0 57 62" version="1.1">
    <!-- Generator: Sketch 55.1 (78136) - https://sketchapp.com -->
    <title>Mark</title>
    <desc>Created with Sketch.</desc>
    <g id="Mock-Ups" stroke="none" stroke-width="1" fill="none" fill-rule="evenodd">
        <g id="Landing-Page" transform="translate(-769.000000, -76.000000)" fill="#FFFFFE">
            <g id="Nav" transform="translate(79.000000, 69.000000)">
                <g id="SS_horizontal_White" transform="translate(690.056800, 7.581451)">
                    <g id="Mark" transform="translate(0.434395, 0.356808)">
                        <path d="M51.6696853,5.10384419 L48.9697339,21.2994779 L39.3706827,9.99621212 L51.6696853,5.10384419 Z M49.0279326,28.2651515 L51.4308381,37.1415643 L33.0572941,42.2044175 L49.0279326,28.2651515 Z M9.03103243,23.8041206 L18.8819673,10.9278256 L35.9891089,10.9278256 L46.9234697,23.8041206 L9.03103243,23.8041206 Z M45.6570672,26.9855805 L27.8450237,42.530948 L9.70287755,26.9855805 L45.6570672,26.9855805 Z M15.5832683,10.0055283 L6.78084015,21.5109541 L4.07762963,5.16626229 L15.5832683,10.0055283 Z M22.5694333,42.1992936 L4.02082776,37.1457566 L6.56247884,28.4840807 L22.5694333,42.1992936 Z M25.9943069,46.4297502 L22.4926111,50.2843008 C19.5254115,47.4647727 16.2630284,44.9610616 12.7804217,42.8295301 L25.9943069,46.4297502 Z M42.9780674,42.7708385 C39.4954606,44.9368397 36.2409926,47.4731572 33.2924166,50.3197021 L29.7166921,46.4246263 L42.9780674,42.7708385 Z M55.7342784,0.0628839066 L36.4197788,7.74636568 L18.417775,7.74636568 L9.9475983e-14,-8.17124146e-14 L4.18378396,25.2956337 L0.166215321,38.9880221 L10.6480235,45.2573147 C15.6107381,48.2259009 20.0561831,51.9402437 23.8605119,56.2964681 L27.9418663,60.9699068 L32.2252863,56.0551802 C35.9006469,51.8377662 40.1808078,48.2175164 44.9465782,45.2945792 L55.2258551,38.9880221 L51.5239559,25.314266 L55.7342784,0.0628839066 L55.7342784,0.0628839066 Z" id="Fill-16"/>
                    </g>
                </g>
            </g>
        </g>
    </g>
</svg>