<svg width="178" height="40" viewBox="0 0 178 40" fill="none" xmlns="http://www.w3.org/2000/svg">
<g clip-path="url(#clip0_5_347)">
<path fill-rule="evenodd" clip-rule="evenodd" d="M41.5385 27.7663V6.57173C41.5385 4.58986 41.0206 3.88316 38.7437 4.10302V3.09166L43.8154 1.98923C44.8052 1.76936 45.4058 2.25306 45.4058 3.31153V27.6721C45.4058 29.2142 46.3098 29.4781 47.5509 29.2142V29.8424C47.0361 30.6339 45.746 31.1208 44.5416 31.1208C42.8378 31.127 41.5385 30.147 41.5385 27.7663ZM9.72042 27.4585C9.72042 29.0886 8.81947 29.4812 5.33519 29.7953V30.8506H18.5429V29.7953C15.0587 29.4844 14.1148 29.0886 14.1148 27.4585V7.71817C14.1148 5.6012 14.458 5.07354 17.5531 5.07354C20.5685 5.07354 21.5584 6.00012 22.7627 9.43622H23.8781L23.1488 3.83919C23.1409 3.77225 23.12 3.7076 23.0874 3.64906C23.0548 3.59051 23.011 3.53924 22.9588 3.49827C22.9065 3.4573 22.8468 3.42745 22.7831 3.41048C22.7195 3.39352 22.6531 3.38977 22.588 3.39948C21.9384 3.44345 20.8688 3.48742 19.7932 3.48742H4.05733C2.97558 3.48742 1.91222 3.44345 1.29933 3.39948C0.943857 3.39948 0.729343 3.52511 0.686442 3.83919L0 9.43622H1.11546C2.32592 6.00012 3.31573 5.07354 6.325 5.07354C9.41396 5.07354 9.72042 5.6012 9.72042 7.71817V27.4585ZM32.4218 19.1729C23.0936 20.3193 20.4275 22.832 20.4275 26.2681C20.4275 29.7073 23.1794 31.1208 26.0171 31.1208C28.8548 31.1208 31.435 29.7859 32.9397 27.9013C33.24 27.5056 33.5832 27.5056 33.5832 27.9453C33.669 30.0183 34.8304 31.1208 36.5925 31.1208C37.7968 31.1208 39.044 30.6339 39.5588 29.8424V29.2142C38.3116 29.4781 37.4536 29.2142 37.4536 27.6721V18.0328C37.4536 12.7844 35.431 10.5858 30.3594 10.5858C26.1887 10.5858 21.7177 11.9489 21.7177 15.2971C21.7177 16.5754 22.3612 17.4549 23.6513 17.4549C24.8557 17.4549 25.7597 16.6633 25.7597 15.0332C25.7597 13.0482 26.7464 11.8578 29.198 11.8578C32.2502 11.8578 33.5832 13.7863 33.5832 16.9271V17.8977C33.5832 18.8211 33.1971 19.085 32.4218 19.1729ZM33.5832 21.8615V23.6706C33.5832 26.667 31.1316 28.8688 28.2051 28.8688C25.6708 28.8688 24.5094 27.2386 24.5094 25.4326C24.5094 23.4036 25.8455 21.1139 31.864 20.4512C33.2768 20.2753 33.5832 20.8501 33.5832 21.8615ZM50.1375 6.57173V27.7663C50.1375 30.147 51.4182 31.127 53.1406 31.1208C54.3447 31.1208 55.6317 30.6339 56.15 29.8424V29.2142C54.9087 29.4781 54.0044 29.2142 54.0044 27.6721V3.31153C54.0044 2.25306 53.4038 1.76936 52.4143 1.98923L47.3426 3.09166V4.10302C49.6196 3.88316 50.1375 4.58986 50.1375 6.57173ZM57.6177 36.7115C57.6111 36.411 57.6649 36.1123 57.7753 35.8339C57.8857 35.5555 58.0508 35.3032 58.2603 35.0928C58.4697 34.8823 58.7186 34.7181 58.9922 34.6103C59.2664 34.5024 59.5586 34.4532 59.8518 34.4657C61.3143 34.4657 61.5214 35.5131 61.7089 36.4587C61.8626 37.2368 62.003 37.9458 62.8178 37.9458C63.8078 37.9458 64.6568 36.4916 65.2694 34.9494C66.1308 32.6598 65.6125 30.8067 65.0119 29.3524L59.8028 16.0006C58.7272 13.312 58.2122 12.6964 56.3641 11.9929V10.9784H65.3065V11.9929C62.9834 12.6964 62.8116 13.2681 63.9306 16.0006L67.6291 25.3887C68.1869 26.755 68.659 26.755 69.2196 25.3447L71.0244 20.5391C73.8196 13.3152 73.0443 12.687 70.5099 11.9929V10.9784H78.2905V11.9929C75.7961 12.6964 75.1093 13.356 74.1199 16.0006L67.047 34.026C65.7139 37.4621 64.5098 39.5759 61.3286 39.5759C59.0365 39.5759 57.6177 38.3887 57.6177 36.7115ZM106.673 27.4585V6.87954C106.673 5.24944 107.577 4.80973 109.336 4.54589V3.48742H99.5791V4.54589C101.341 4.80973 102.288 5.24944 102.288 6.87954V15.1086C102.288 16.1639 101.688 16.6068 100.655 16.6068H90.6367C89.6044 16.6068 89.0466 16.1639 89.0466 15.1086V6.87954C89.0466 5.24944 89.9476 4.80973 91.7128 4.54589V3.48742H81.9523V4.54589C83.699 4.80973 84.6185 5.24944 84.6185 6.87954V27.4585C84.6185 29.0886 83.7143 29.4812 81.9523 29.7953V30.8506H91.7033V29.7953C89.9381 29.4844 89.0371 29.0886 89.0371 27.4585V19.4399C89.0371 18.3814 89.5949 17.9417 90.5849 17.9417H100.698C101.675 17.9417 102.288 18.3814 102.288 19.4399V27.4585C102.288 29.0886 101.341 29.4812 99.5791 29.7953V30.8506H109.339V29.7953C107.592 29.4844 106.673 29.0886 106.673 27.4585ZM110.617 20.8941C110.617 14.4145 115.345 10.5826 120.635 10.5826C125.924 10.5826 130.61 14.3705 130.61 20.8061C130.61 27.2418 125.884 31.127 120.592 31.127C115.3 31.127 110.617 27.3266 110.617 20.8941ZM126.439 22.4802C126.439 16.7952 123.681 11.9049 119.645 11.9049C116.808 11.9049 114.785 14.2386 114.785 19.2169C114.785 24.9018 117.543 29.7513 121.579 29.7513C124.373 29.7513 126.439 27.4585 126.439 22.4802ZM135.467 2.78073C133.834 2.78073 132.801 4.05906 132.801 6.08808C132.801 7.95066 133.151 9.90837 133.554 12.1603C134.066 15.0195 134.662 18.353 134.735 22.5682H136.153C136.232 18.3602 136.84 15.0309 137.362 12.1749C137.774 9.91686 138.133 7.95471 138.133 6.08808C138.133 4.05906 137.1 2.78073 135.467 2.78073ZM133.716 26.7357C133.249 27.206 132.982 27.846 132.972 28.517C132.964 29.0244 133.103 29.523 133.372 29.9491C133.64 30.3753 134.027 30.7099 134.482 30.9101C134.937 31.1104 135.44 31.1673 135.927 31.0737C136.413 30.9801 136.862 30.7401 137.215 30.3844C137.568 30.0287 137.81 29.5732 137.91 29.0761C138.01 28.579 137.963 28.0627 137.775 27.593C137.588 27.1232 137.268 26.7213 136.857 26.4384C136.446 26.1555 135.962 26.0044 135.467 26.0043C134.812 26.0026 134.183 26.2653 133.716 26.7357Z" fill="#CCD3D3"/>
<path fill-rule="evenodd" clip-rule="evenodd" d="M177.545 16.591C177.545 25.6719 170.362 33.0336 161.502 33.0336C152.642 33.0336 145.46 25.6719 145.46 16.591C145.46 7.50999 152.642 0.148376 161.502 0.148376C170.362 0.148376 177.545 7.50999 177.545 16.591ZM161.502 32.6094C170.134 32.6094 177.131 25.4377 177.131 16.591C177.131 7.74423 170.134 0.572553 161.502 0.572553C152.871 0.572553 145.873 7.74423 145.873 16.591C145.873 25.4377 152.871 32.6094 161.502 32.6094Z" fill="#CCD3D3"/>
<path d="M169.888 9.8552L170.01 8.56661C170.013 8.5451 170.025 8.52564 170.041 8.51164C170.057 8.49759 170.078 8.48993 170.099 8.48993C170.12 8.48993 170.141 8.49759 170.158 8.51164C170.174 8.52564 170.185 8.5451 170.188 8.56661L170.308 9.85227C170.316 9.95178 170.359 10.0449 170.429 10.1144C170.499 10.1839 170.591 10.2251 170.688 10.2304L172.047 10.3148C172.068 10.3186 172.087 10.3299 172.101 10.3467C172.115 10.3634 172.122 10.3845 172.122 10.4064C172.122 10.4282 172.115 10.4494 172.101 10.4661C172.087 10.4829 172.068 10.4942 172.047 10.498L170.685 10.5824C170.589 10.5894 170.497 10.6312 170.428 10.7004C170.358 10.7695 170.315 10.8616 170.305 10.9605L170.186 12.2491C170.182 12.2706 170.171 12.29 170.155 12.304C170.138 12.3181 170.118 12.3257 170.096 12.3257C170.075 12.3257 170.054 12.3181 170.038 12.304C170.022 12.29 170.01 12.2706 170.007 12.2491L169.888 10.9634C169.879 10.8644 169.835 10.7719 169.765 10.7026C169.696 10.6333 169.604 10.5917 169.507 10.5852L168.148 10.5009C168.127 10.4971 168.108 10.4858 168.094 10.4691C168.081 10.4523 168.073 10.4311 168.073 10.4093C168.073 10.3874 168.081 10.3663 168.094 10.3495C168.108 10.3328 168.127 10.3215 168.148 10.3177L169.507 10.2304C169.604 10.2252 169.696 10.1844 169.766 10.1155C169.836 10.0466 169.879 9.95417 169.888 9.8552Z" fill="#CCD3D3"/>
<path d="M167.725 15.8676C168.067 15.8066 168.416 15.7959 168.761 15.8356C168.879 15.8581 169.001 15.8471 169.113 15.8036L169.07 15.7658C168.256 15.0464 167.379 14.4048 166.451 13.849C165.216 13.1101 164.385 11.2544 164.141 10.693C163.948 10.2577 163.604 9.91154 163.176 9.72149C163.385 9.70827 163.595 9.74466 163.789 9.82793C163.982 9.91115 164.154 10.039 164.291 10.2014C164.507 10.3847 165.287 11.8187 165.69 11.8594C165.835 11.8539 165.977 11.8315 166.116 11.7925H166.147L166.338 11.7459H166.357L166.508 11.7081L166.792 11.6238L166.766 11.6063C166.335 11.3154 166.059 10.8181 165.758 10.2829C165.6 9.99637 165.41 9.72988 165.191 9.48876C165.13 9.4212 165.064 9.3589 164.992 9.30261C164.919 9.24812 164.843 9.19949 164.762 9.1572C164.615 9.08154 164.479 9.02047 164.334 8.96232C164.189 8.90412 164.05 8.85178 163.945 8.79359L163.545 8.58998L162.739 8.18856C162.193 7.92203 161.632 7.6889 161.059 7.49047C160.476 7.29403 159.875 7.15949 159.265 7.0891C159.108 7.06929 158.95 7.05764 158.791 7.05417C158.603 7.05276 158.417 7.09451 158.247 7.17632C158.088 7.24905 157.963 7.32759 157.849 7.37705C157.736 7.42647 157.565 7.505 157.435 7.57481C156.882 7.84695 156.361 8.18056 155.88 8.56964C155.629 8.76061 155.394 8.97169 155.176 9.20081C154.992 9.40095 154.837 9.62608 154.713 9.86983C154.843 9.84544 154.976 9.83471 155.108 9.83783C155.559 9.86495 156.005 9.95798 156.43 10.1141C156.033 10.1141 153.972 10.0007 152.874 10.757C152.663 10.9026 152.488 11.0969 152.364 11.3242C152.318 11.4143 152.259 11.5452 152.193 11.7081C152.185 11.7319 152.176 11.7552 152.165 11.7779C151.975 12.2887 151.82 12.8126 151.702 13.3457C151.49 14.2715 151.383 15.2191 151.381 16.1701C151.381 16.3155 151.381 16.461 151.381 16.6093C151.381 16.7576 151.401 16.8566 151.413 16.9816V17.0602C151.424 17.1688 151.439 17.2764 151.455 17.383L151.472 17.4849C151.514 17.7469 151.571 18.0062 151.643 18.2614C151.777 18.7039 151.968 19.1263 152.21 19.518C152.324 19.6606 152.437 19.7187 152.536 19.5849L152.607 19.4831C152.69 19.3639 152.812 19.1923 152.96 18.9479L153.141 18.6571V18.6396L153.314 18.3487L153.354 18.2847C153.482 18.0724 153.638 17.8397 153.768 17.5895L153.828 17.4877L154.004 17.1794L154.055 17.0922L154.279 16.6937L154.333 16.5977C154.393 16.4871 154.452 16.3766 154.514 16.2661C154.534 16.2253 154.557 16.1847 154.58 16.1439L154.81 15.7076C155.065 15.216 155.315 14.7099 155.542 14.2067C155.652 13.9682 155.766 13.7326 155.888 13.4999C156.064 13.1466 156.27 12.8098 156.504 12.4935C156.625 12.3306 156.765 12.184 156.921 12.0571C157.075 11.9265 157.266 11.8491 157.466 11.8361C156.83 12.4178 156.291 14.006 155.843 15.7512C155.559 16.8769 155.695 17.4237 154.858 20.0765C154.027 22.6769 154.79 23.6251 155.806 24.3785C157.915 25.8619 160.165 25.8765 160.409 27.869L160.54 28.9132L161.068 28.0115C161.257 27.6812 161.407 27.3286 161.513 26.9614V26.912L161.941 27.2378C162.21 26.7301 162.321 26.1509 162.261 25.5768C162.2 25.0028 161.971 24.4611 161.604 24.0236C161.638 24.0992 161.672 24.1749 161.703 24.2534C161.833 24.5541 161.929 24.8694 161.987 25.193C162.049 25.5457 162.023 25.9086 161.913 26.2488L161.774 26.6531L161.436 26.3971C161.386 26.3599 161.331 26.3278 161.275 26.3011C161.249 26.4974 161.211 26.6917 161.161 26.8829C161.065 27.2168 160.928 27.5372 160.755 27.837C160.42 25.0911 157.872 25.1842 156.399 24.0556C154.926 22.9271 154.81 21.5832 155.718 19.2591C155.995 18.5445 156.197 17.8014 156.32 17.0427C156.345 16.8711 156.376 16.7024 156.413 16.5337C156.412 16.5095 156.412 16.4852 156.413 16.461L156.439 16.3388C156.439 16.6006 156.439 16.8594 156.479 17.1154C156.492 17.3625 156.54 17.6064 156.62 17.8397C156.656 17.94 156.711 18.032 156.782 18.1102C156.816 18.148 156.856 18.18 156.91 18.2353C156.948 18.2792 156.989 18.321 157.032 18.3604C157.213 18.5011 157.414 18.612 157.628 18.6891C158.081 18.8512 158.552 18.9548 159.03 18.9974C159.489 19.0526 159.958 19.0643 160.429 19.0759H160.5C160.989 19.0788 161.474 19.1643 161.936 19.329C162.349 19.471 162.781 19.5485 163.216 19.5588C164.132 19.6492 165.036 19.8373 165.915 20.1201C166.289 20.1317 166.664 20.0975 167.03 20.0183C167.288 19.966 167.544 19.8962 167.796 19.8176C168.364 19.5704 168.755 18.8985 167.981 18.9887C167.798 19.0006 167.617 19.0258 167.439 19.0643C167.181 19.1166 166.922 19.2562 166.587 19.3551C166.272 19.4286 165.945 19.4196 165.634 19.329C165.362 19.2164 165.075 19.1477 164.782 19.1253C164.919 19.0456 165.071 18.998 165.228 18.9857C165.387 18.9857 165.537 18.9857 165.679 18.9857C165.945 19.0202 166.214 19.0084 166.477 18.9508C166.715 18.881 166.962 18.6949 167.266 18.5698C167.561 18.4424 167.878 18.3733 168.199 18.3662H168.177C168.248 18.3662 168.319 18.3662 168.392 18.3662C168.616 18.0462 168.806 17.703 168.733 17.4005C168.646 17.2805 168.525 17.191 168.387 17.1445C168.216 17.0834 167.294 16.8914 166.984 16.6006C166.871 16.4086 166.982 16.0276 167.725 15.8676ZM162.841 12.031C162.761 12.1039 162.7 12.1976 162.666 12.3024C162.632 12.4071 162.626 12.5193 162.648 12.6273C162.674 12.9676 162.277 13.2381 161.797 13.2905C161.181 13.3603 160.852 12.9996 160.945 12.5691C161.107 11.8594 160.753 12.0921 160.514 12.3771C160.509 12.3827 160.503 12.3866 160.496 12.3882C160.489 12.3899 160.482 12.3892 160.475 12.3863C160.468 12.3834 160.463 12.3784 160.459 12.372C160.456 12.3657 160.454 12.3583 160.455 12.351C160.556 11.6209 160.974 11.5918 161.161 11.5918C161.724 11.6329 162.282 11.7303 162.827 11.8827C162.841 11.8885 162.853 11.898 162.862 11.9103C162.87 11.9226 162.876 11.9372 162.878 11.9524C162.879 11.9677 162.877 11.9831 162.87 11.9969C162.864 12.0108 162.854 12.0225 162.841 12.031Z" fill="#D08E39"/>
</g>
<defs>
<clipPath id="clip0_5_347">
<rect width="178" height="40" fill="white"/>
</clipPath>
</defs>
</svg>
