<svg width="175" height="33" viewBox="0 0 175 33" fill="none" xmlns="http://www.w3.org/2000/svg">
<path fill-rule="evenodd" clip-rule="evenodd" d="M63.1831 16.4445L60.7814 25.5429H58.2833L54.9349 12.2275H57.6785L59.6682 21.8703H59.7383L62.105 12.2275H64.3402L66.7068 21.8703H66.777L68.7755 12.2275H71.519L68.1619 25.5429H65.6638L63.262 16.4445H63.1831ZM75.1655 23.7527C76.2787 23.7527 77.199 22.9868 77.199 21.9165V21.1967L75.218 21.3259C74.2626 21.3997 73.7192 21.8519 73.7192 22.5532C73.7192 23.2914 74.2977 23.7527 75.1655 23.7527ZM74.324 25.6998C72.5358 25.6998 71.1772 24.4817 71.1772 22.7008C71.1772 20.9014 72.492 19.8587 74.8324 19.7111L77.199 19.5634V18.9083C77.199 17.9855 76.5855 17.4503 75.6213 17.4503C74.6658 17.4503 74.061 17.9486 73.9383 18.6776H71.5979C71.6944 16.7582 73.2458 15.4387 75.7352 15.4387C78.1457 15.4387 79.7147 16.749 79.7147 18.7422V25.5429H77.2429V24.0296H77.1903C76.6643 25.0815 75.4985 25.6998 74.324 25.6998ZM81.424 25.5429V12.2275H83.9835V25.5429H81.424ZM85.7716 25.5429V12.2275H88.3311V25.5429H85.7716ZM94.2741 17.4319C93.1521 17.4319 92.3457 18.3269 92.258 19.5634H96.2463C96.1937 18.2992 95.4136 17.4319 94.2741 17.4319ZM96.2813 22.5162H98.6305C98.35 24.454 96.667 25.7551 94.3442 25.7551C91.4516 25.7551 89.716 23.8081 89.716 20.643C89.716 17.4872 91.4691 15.4387 94.2478 15.4387C96.9826 15.4387 98.7093 17.3857 98.7093 20.3939V21.2152H92.2317V21.3813C92.2317 22.7931 93.082 23.762 94.388 23.762C95.3259 23.762 96.0447 23.2729 96.2813 22.5162ZM100.708 13.3717H103.267V15.6509H105.003V17.681H103.267V22.4147C103.267 23.1714 103.618 23.5313 104.372 23.5313C104.6 23.5313 104.836 23.5128 104.994 23.4851V25.4691C104.731 25.5337 104.293 25.5798 103.776 25.5798C101.567 25.5798 100.708 24.8047 100.708 22.8761V17.681H99.3843V15.6509H100.708V13.3717ZM112.217 25.7736C108.535 25.7736 106.23 23.1806 106.23 18.8806C106.23 14.5898 108.553 11.9968 112.217 11.9968C115.258 11.9968 117.573 14.0269 117.774 17.0074H115.197C114.952 15.3741 113.76 14.3037 112.217 14.3037C110.218 14.3037 108.93 16.0662 108.93 18.8714C108.93 21.7134 110.201 23.4667 112.226 23.4667C113.795 23.4667 114.925 22.4978 115.206 20.9199H117.783C117.485 23.8911 115.32 25.7736 112.217 25.7736ZM123.507 25.7551C120.667 25.7551 118.852 23.8358 118.852 20.5877C118.852 17.3857 120.693 15.4387 123.507 15.4387C126.32 15.4387 128.161 17.3765 128.161 20.5877C128.161 23.845 126.347 25.7551 123.507 25.7551ZM123.507 23.6974C124.76 23.6974 125.558 22.5808 125.558 20.5969C125.558 18.6314 124.751 17.4965 123.507 17.4965C122.262 17.4965 121.447 18.6314 121.447 20.5969C121.447 22.5808 122.244 23.6974 123.507 23.6974ZM129.476 25.5429V15.6509H131.948V17.4134H132C132.5 16.1861 133.49 15.4664 134.937 15.4664C137.023 15.4664 138.198 16.8505 138.198 19.1666V25.5429H135.638V19.7295C135.638 18.4377 135.059 17.6995 133.911 17.6995C132.763 17.6995 132.035 18.5853 132.035 19.8679V25.5429H129.476ZM139.819 25.5429V15.6509H142.291V17.4134H142.344C142.843 16.1861 143.834 15.4664 145.28 15.4664C147.366 15.4664 148.541 16.8505 148.541 19.1666V25.5429H145.981V19.7295C145.981 18.4377 145.403 17.6995 144.254 17.6995C143.106 17.6995 142.379 18.5853 142.379 19.8679V25.5429H139.819ZM154.378 17.4319C153.256 17.4319 152.45 18.3269 152.362 19.5634H156.351C156.298 18.2992 155.518 17.4319 154.378 17.4319ZM156.386 22.5162H158.735C158.454 24.454 156.771 25.7551 154.449 25.7551C151.556 25.7551 149.82 23.8081 149.82 20.643C149.82 17.4872 151.574 15.4387 154.352 15.4387C157.087 15.4387 158.814 17.3857 158.814 20.3939V21.2152H152.336V21.3813C152.336 22.7931 153.186 23.762 154.492 23.762C155.43 23.762 156.149 23.2729 156.386 22.5162ZM168.666 19.3327H166.291C166.142 18.29 165.484 17.5518 164.432 17.5518C163.17 17.5518 162.381 18.6776 162.381 20.5877C162.381 22.5347 163.17 23.642 164.441 23.642C165.467 23.642 166.133 22.9961 166.291 21.9165H168.675C168.543 24.251 166.887 25.7551 164.415 25.7551C161.584 25.7551 159.787 23.8173 159.787 20.5877C159.787 17.4134 161.584 15.4387 164.397 15.4387C166.939 15.4387 168.552 17.0904 168.666 19.3327ZM170.594 13.3717H173.154V15.6509H174.89V17.681H173.154V22.4147C173.154 23.1714 173.505 23.5313 174.258 23.5313C174.486 23.5313 174.723 23.5128 174.881 23.4851V25.4691C174.618 25.5337 174.18 25.5798 173.662 25.5798C171.453 25.5798 170.594 24.8047 170.594 22.8761V17.681H169.271V15.6509H170.594V13.3717Z" fill="#3999FB"/>
<path d="M9.53555 5.87771C17.118 -1.93759 29.4117 -1.93759 36.9942 5.87771L37.9067 6.8183C38.2858 7.20906 38.2858 7.84262 37.9067 8.23338L34.785 11.4509C34.5955 11.6463 34.2881 11.6463 34.0986 11.4509L32.8428 10.1566C27.553 4.70443 18.9767 4.70443 13.687 10.1566L12.3421 11.5427C12.1525 11.7381 11.8452 11.7381 11.6556 11.5427L8.53393 8.32517C8.15481 7.93441 8.15481 7.30085 8.53393 6.91009L9.53555 5.87771ZM43.4501 12.5319L46.2284 15.3956C46.6076 15.7863 46.6076 16.4199 46.2285 16.8107L33.7008 29.7232C33.3217 30.1139 32.707 30.1139 32.3279 29.7232C32.3279 29.7232 32.3279 29.7232 32.3279 29.7232L23.4365 20.5588C23.3418 20.4611 23.1881 20.4611 23.0933 20.5588C23.0933 20.5588 23.0933 20.5588 23.0933 20.5588L14.2021 29.7232C13.823 30.1139 13.2083 30.1139 12.8292 29.7232C12.8292 29.7232 12.8292 29.7232 12.8292 29.7232L0.301219 16.8105C-0.0779048 16.4197 -0.0779048 15.7862 0.301219 15.3954L3.07954 12.5318C3.45867 12.141 4.07335 12.141 4.45247 12.5318L13.344 21.6963C13.4387 21.794 13.5924 21.794 13.6872 21.6963C13.6872 21.6963 13.6872 21.6963 13.6872 21.6963L22.5782 12.5318C22.9573 12.141 23.572 12.141 23.9512 12.5318C23.9512 12.5318 23.9512 12.5318 23.9512 12.5318L32.8426 21.6963C32.9374 21.794 33.0911 21.794 33.1859 21.6963L42.0772 12.5319C42.4563 12.1412 43.071 12.1412 43.4501 12.5319Z" fill="#3B99FC"/>
</svg>
