<svg xmlns:xlink="http://www.w3.org/1999/xlink" xmlns="http://www.w3.org/2000/svg" width="114" height="35" viewBox="0 0 114 35" fill="none">
<g clip-path="url(#clip0_129_442)">
<path d="M14.187 19.0352L12.1386 15.9939L10.127 19.0352H6.95614L10.5409 14.0781L7.10351 9.22726H10.2339L12.2166 12.0395L14.1582 9.21068H17.1694L13.7363 13.9639L17.3947 19.0352H14.187ZM23.5351 9.21191H28.3233C29.3375 9.19381 30.3431 9.40013 31.2682 9.81612C32.0844 10.1831 32.7781 10.7766 33.2669 11.5262C33.7298 12.3133 33.9738 13.2098 33.9738 14.123C33.9738 15.0361 33.7298 15.9326 33.2669 16.7197C32.7781 17.4693 32.0844 18.0628 31.2682 18.4298C30.3431 18.8458 29.3375 19.0521 28.3233 19.034H23.5351V9.21191ZM28.2054 16.8173C28.9722 16.8571 29.725 16.6016 30.3091 16.1032C30.8146 15.5686 31.0962 14.8608 31.0962 14.1251C31.0962 13.3894 30.8146 12.6816 30.3091 12.147C29.7257 11.647 28.9728 11.3899 28.2054 11.4286H26.4002V16.8173H28.2054V16.8173ZM49.3246 16.8873V19.0352H41.3421V9.21068H49.1385V11.3586H44.1102V13.0165H48.5269V15.0907H44.1102V16.8873H49.3246ZM60.185 11.3586V13.5187H64.6797V15.6666H60.185V19.0352H57.307V9.21068H65.2895V11.3586H60.185ZM72.0439 9.21068H75.114V19.0352H72.0439V9.21068ZM13.0965 23.9475L10.2523 32.544H9.00149L6.68228 25.6809L4.36368 32.544H3.04166L0.201752 23.9475H1.45316L3.74658 30.9371L6.14008 23.9475H7.25394L9.59772 30.9752L11.9415 23.9475H13.0965ZM24.4733 30.3967H20.1168L19.2153 32.544H18.0088L21.7218 23.9475H22.8805L26.6053 32.544H25.3741L24.4733 30.3967ZM24.0711 29.4143L22.3009 25.1959L20.5349 29.4143H24.0711ZM32.7456 23.9475H33.9018V31.4768H38.2719V32.544H32.7456V23.9475ZM45.6403 23.9475H46.7966V31.4768H51.1667V32.544H45.6403V23.9475ZM64.0614 31.4768V32.544H57.921V23.9475H63.8913V25.019H59.1295V27.6594H63.3559V28.7014H59.1295V31.4768H64.0614ZM72.392 25.019H69.5877V23.9475H76.3421V25.019H73.5378V32.544H72.384L72.392 25.019ZM100.166 19.648C97.5318 21.3035 94.0073 22.1564 90.4367 21.974C87.434 21.8254 84.9724 20.7324 83.4839 18.9364C82.1754 17.3301 81.6682 15.211 82.0115 12.7727C82.1282 11.9622 82.3664 11.1756 82.7195 10.4381L82.7686 10.335C86.1808 3.68375 93.7807 0.422607 100.876 2.56252C107.974 4.70366 112.57 11.6423 111.83 19.0985C111.09 26.5559 105.223 32.431 97.8468 33.1003L98.0114 35.0002C106.292 34.2535 112.882 27.6581 113.712 19.2852C114.541 10.9128 109.377 3.12375 101.406 0.728396C93.4362 -1.66757 84.9091 2.00436 81.088 9.4784L81.0223 9.61471C80.5847 10.5304 80.2897 11.5075 80.1473 12.5123C79.7383 15.4843 80.372 18.1289 82.0287 20.1657C83.8401 22.3922 86.7893 23.7166 90.3267 23.8904C94.633 24.1102 98.9153 22.9221 101.954 20.7367L100.167 19.648H100.166Z" fill="white"/>
<path d="M104.106 22.1052C102.388 23.5126 98.3945 26.0645 91.7691 26.4127C84.3516 26.7995 81.2605 24.5258 81.2323 24.503L80.633 25.1987L81.236 24.5141L80.0263 25.8834C80.1577 25.9878 83.1217 28.2456 90.0842 28.2456C90.6534 28.2456 91.2521 28.2456 91.8753 28.1989C99.883 27.7777 104.283 24.4834 105.816 23.076L104.106 22.1052Z" fill="white"/>
<path d="M107.234 23.9634C106.203 25.2801 104.941 26.3988 103.51 27.265C98.4443 30.4457 92.0006 30.8571 87.4899 30.6355L87.3947 32.4917C88.1253 32.5266 88.8566 32.544 89.5881 32.5439C102.31 32.5439 107.45 26.907 108.886 24.8936L107.231 23.9474" fill="white"/>
<path d="M106.737 16.579C107.585 16.579 108.272 15.8917 108.272 15.0439C108.272 14.1961 107.585 13.5088 106.737 13.5088C105.889 13.5088 105.202 14.1961 105.202 15.0439C105.202 15.8917 105.889 16.579 106.737 16.579Z" fill="white"/>
</g>
<defs>
<clipPath id="clip0_129_442">
<rect width="113.596" height="35" fill="white" transform="translate(0.201752)"/>
</clipPath>
</defs>
</svg>